<svg width="136" height="19" viewBox="0 0 136 19" fill="none" xmlns="http://www.w3.org/2000/svg">
<path d="M64.2944 0.118408V12.4659H63.0448V2.5879L58.1947 10.8965H57.5788L52.7227 2.6412V12.4659H51.4731V0.118408H52.551L57.9163 9.27388L63.2284 0.118408H64.2944Z" fill="#353535"/>
<path d="M76.0613 9.16729H69.1799L67.6994 12.4659H66.3433L71.987 0.118408H73.2721L78.9158 12.4659H77.5418L76.0613 9.16729ZM75.5816 8.10724L72.6206 1.47456L69.6596 8.10724H75.5816Z" fill="#353535"/>
<path d="M89.3973 12.4659L86.5725 8.4981C86.2527 8.53363 85.927 8.55139 85.5835 8.55139H82.2672V12.4659H80.9644V0.118408H85.5835C87.1588 0.118408 88.3965 0.497419 89.2907 1.24952C90.185 2.00162 90.6291 3.03797 90.6291 4.35267C90.6291 5.31796 90.3863 6.12928 89.8948 6.79847C89.4092 7.46174 88.7104 7.94142 87.8043 8.23753L90.8186 12.4718H89.3973V12.4659ZM88.3551 6.62673C89.0006 6.08783 89.3263 5.3298 89.3263 4.35267C89.3263 3.35184 89.0006 2.5879 88.3551 2.04899C87.7096 1.51601 86.7739 1.2436 85.548 1.2436H82.2672V7.43805H85.548C86.7739 7.43805 87.7096 7.16564 88.3551 6.62673Z" fill="#353535"/>
<path d="M97.5463 6.66226L95.0236 9.22058V12.4659H93.7207V0.118408H95.0236V7.58018L102.272 0.118408H103.77L98.4228 5.70881L104.138 12.4659H102.586L97.5463 6.66226Z" fill="#353535"/>
<path d="M114.993 11.3348V12.4659H106.264V0.118408H114.732V1.24952H107.572V5.63775H113.956V6.75109H107.572V11.3348H114.993Z" fill="#353535"/>
<path d="M120.459 1.24952H116.118V0.118408H126.103V1.24952H121.762V12.4718H120.459V1.24952Z" fill="#353535"/>
<path d="M128.762 12.1283C127.921 11.8322 127.269 11.4473 126.813 10.9617L127.323 9.95495C127.767 10.3991 128.365 10.7663 129.105 11.0387C129.846 11.317 130.61 11.4532 131.397 11.4532C132.505 11.4532 133.334 11.2519 133.884 10.8433C134.435 10.4346 134.713 9.9135 134.713 9.26207C134.713 8.77054 134.565 8.37376 134.263 8.07766C133.961 7.78156 133.594 7.55652 133.162 7.39663C132.73 7.23673 132.12 7.06499 131.344 6.87549C130.414 6.63861 129.674 6.41357 129.123 6.19445C128.572 5.97534 128.099 5.6437 127.702 5.19955C127.305 4.7554 127.11 4.14543 127.11 3.38148C127.11 2.75967 127.275 2.19115 127.601 1.68186C127.933 1.17256 128.436 0.763943 129.117 0.455997C129.798 0.148051 130.645 0 131.658 0C132.362 0 133.055 0.0947526 133.73 0.29018C134.406 0.485607 134.992 0.752099 135.483 1.09558L135.045 2.13786C134.53 1.79438 133.973 1.53973 133.387 1.36799C132.801 1.19625 132.22 1.11334 131.658 1.11334C130.574 1.11334 129.763 1.32062 129.212 1.74108C128.667 2.16154 128.395 2.69453 128.395 3.3578C128.395 3.84933 128.543 4.2461 128.845 4.54813C129.147 4.85015 129.52 5.07519 129.976 5.23508C130.426 5.39498 131.036 5.56672 131.8 5.75622C132.706 5.98126 133.44 6.20038 133.997 6.41949C134.554 6.63861 135.027 6.96432 135.418 7.40847C135.809 7.8467 135.999 8.44483 135.999 9.19693C135.999 9.81874 135.833 10.3873 135.495 10.8966C135.158 11.4058 134.648 11.8145 133.95 12.1165C133.257 12.4185 132.404 12.5666 131.391 12.5666C130.479 12.5725 129.603 12.4244 128.762 12.1283Z" fill="#353535"/>
<path d="M45.9375 0.0830078H48.7978V12.4482H45.9375V0.0830078Z" fill="#353535"/>
<path d="M40.1818 0.0830078V7.58031L34.0407 0.0830078H31.6837H31.2099V6.89928C31.2099 8.04815 30.9731 8.87724 30.4993 9.41022C30.0255 9.9432 29.3504 10.2097 28.4621 10.2097C26.6322 10.2097 25.7202 9.12004 25.7202 6.9052V0.0830078H22.8599V7.01772C22.8599 8.81802 23.3632 10.2334 24.3345 11.2105C25.3057 12.1817 26.6973 12.6851 28.468 12.6851C30.2387 12.6851 31.5949 12.1817 32.6016 11.2105C33.5728 10.2393 34.0762 8.84763 34.0762 7.01772V4.42386L34.55 4.95685L40.6556 12.4482H43.0185V0.0830078H40.1818Z" fill="#353535"/>
<path d="M17.0732 0.0830078H1.81807C0.811319 0.0830078 0 0.90025 0 1.87146V17.1562C0 18.1571 0.811319 18.9743 1.81807 18.9743H17.0792C18.08 18.9743 18.8972 18.163 18.8972 17.1562V1.87146C18.8913 0.90025 18.08 0.0830078 17.0732 0.0830078ZM17.5352 9.51682H9.26799V17.784H8.88898C8.88898 13.4194 5.36537 9.89583 1.00082 9.89583V9.51682H9.26799V1.24965H9.647C9.647 5.61419 13.1706 9.13781 17.5352 9.13781V9.51682Z" fill="#353535"/>
<path d="M24.1551 15.4386H22.8818V15.1069H25.8132V15.4386H24.54V18.7312H24.1551V15.4386Z" fill="#353535"/>
<path d="M28.8924 18.7312L28.0633 17.5646C27.9686 17.5764 27.8738 17.5823 27.7731 17.5823H26.8019V18.7312H26.417V15.1069H27.7731C28.2351 15.1069 28.5963 15.2195 28.8628 15.4386C29.1234 15.6577 29.2536 15.9656 29.2536 16.3506C29.2536 16.6348 29.1826 16.8717 29.0405 17.0671C28.8983 17.2626 28.6911 17.4047 28.4246 17.4876L29.3129 18.7312H28.8924ZM28.5904 17.0138C28.7799 16.8539 28.8746 16.6348 28.8746 16.3446C28.8746 16.0485 28.7799 15.8235 28.5904 15.6695C28.4009 15.5096 28.1285 15.4326 27.7672 15.4326H26.8019V17.2507H27.7672C28.1225 17.2566 28.4009 17.1737 28.5904 17.0138Z" fill="#353535"/>
<path d="M32.434 17.76H30.4145L29.9822 18.7312H29.5854L31.2436 15.1069H31.6226L33.2808 18.7312H32.8781L32.434 17.76ZM32.2977 17.4521L31.4272 15.5037L30.5567 17.4521H32.2977Z" fill="#353535"/>
<path d="M33.873 15.1069H35.3476C35.7326 15.1069 36.0701 15.1839 36.3603 15.3379C36.6564 15.4919 36.8814 15.7051 37.0413 15.9775C37.2012 16.2499 37.2841 16.5638 37.2841 16.9191C37.2841 17.2685 37.2012 17.5823 37.0413 17.8607C36.8814 18.1331 36.6505 18.3463 36.3603 18.5003C36.0642 18.6542 35.7266 18.7312 35.3476 18.7312H33.873V15.1069ZM35.3299 18.3996C35.6497 18.3996 35.928 18.3344 36.1649 18.2101C36.4018 18.0857 36.5853 17.9081 36.7156 17.6889C36.8459 17.4639 36.9111 17.2093 36.9111 16.9191C36.9111 16.6289 36.8459 16.3743 36.7156 16.1492C36.5853 15.9242 36.4018 15.7524 36.1649 15.6281C35.928 15.5037 35.6497 15.4386 35.3299 15.4386H34.258V18.3996H35.3299Z" fill="#353535"/>
<path d="M38.1489 15.1069H38.5339V18.7312H38.1489V15.1069Z" fill="#353535"/>
<path d="M42.7444 15.1069V18.7312H42.4306L40.1032 15.788V18.7312H39.7183V15.1069H40.0321L42.3654 18.0502V15.1069H42.7444Z" fill="#353535"/>
<path d="M46.4756 16.9189H46.8428V18.2987C46.6711 18.4468 46.4756 18.5593 46.2447 18.6422C46.0137 18.7192 45.7709 18.7607 45.5163 18.7607C45.155 18.7607 44.8293 18.6837 44.5391 18.5238C44.249 18.3639 44.0239 18.1448 43.8581 17.8664C43.6923 17.5822 43.6094 17.2683 43.6094 16.9189C43.6094 16.5695 43.6923 16.2556 43.8581 15.9714C44.0239 15.693 44.249 15.468 44.5391 15.314C44.8293 15.1541 45.155 15.0771 45.5222 15.0771C45.8005 15.0771 46.0552 15.1186 46.2861 15.2074C46.5171 15.2963 46.7125 15.4265 46.8724 15.5983L46.6355 15.8411C46.3513 15.5568 45.9841 15.4147 45.5459 15.4147C45.2498 15.4147 44.9892 15.4798 44.7523 15.6101C44.5154 15.7404 44.3319 15.9181 44.1957 16.149C44.0594 16.38 43.9943 16.6346 43.9943 16.9189C43.9943 17.2032 44.0594 17.4578 44.1957 17.6828C44.3319 17.9079 44.5154 18.0915 44.7464 18.2218C44.9833 18.352 45.2439 18.4172 45.54 18.4172C45.913 18.4172 46.2269 18.3224 46.4875 18.1388V16.9189H46.4756Z" fill="#353535"/>
<path d="M49.2822 15.1069H49.6672V18.7312H49.2822V15.1069Z" fill="#353535"/>
<path d="M51.071 18.6304C50.8223 18.5416 50.6328 18.4291 50.4966 18.287L50.6446 17.9909C50.7749 18.1211 50.9526 18.2277 51.1658 18.3106C51.3849 18.3936 51.6099 18.4291 51.8409 18.4291C52.1666 18.4291 52.4094 18.3699 52.5693 18.2514C52.7292 18.133 52.8121 17.979 52.8121 17.7895C52.8121 17.6474 52.7706 17.5289 52.6818 17.446C52.593 17.3572 52.4864 17.2921 52.3561 17.2447C52.2258 17.1973 52.0482 17.1499 51.8231 17.0907C51.5507 17.0196 51.3316 16.9545 51.1717 16.8894C51.0118 16.8242 50.8697 16.7295 50.7572 16.5992C50.6387 16.4689 50.5854 16.2912 50.5854 16.0662C50.5854 15.8826 50.6328 15.7168 50.7275 15.5687C50.8223 15.4207 50.9703 15.2963 51.1717 15.2075C51.373 15.1187 51.6218 15.0713 51.9179 15.0713C52.1251 15.0713 52.3265 15.1009 52.5278 15.1542C52.7233 15.2134 52.895 15.2904 53.0431 15.3911L52.9128 15.699C52.7588 15.5984 52.5989 15.5214 52.4272 15.474C52.2554 15.4266 52.0837 15.397 51.9179 15.397C51.5981 15.397 51.3612 15.4562 51.2013 15.5806C51.0414 15.7049 50.9585 15.8589 50.9585 16.0543C50.9585 16.1965 51 16.3149 51.0888 16.4037C51.1776 16.4926 51.2842 16.5577 51.4204 16.6051C51.5507 16.6525 51.7343 16.6999 51.9534 16.7591C52.2199 16.8242 52.4331 16.8894 52.5989 16.9545C52.7647 17.0196 52.9009 17.1144 53.0134 17.2447C53.126 17.375 53.1852 17.5467 53.1852 17.7717C53.1852 17.9553 53.1378 18.1211 53.0371 18.2692C52.9365 18.4172 52.7884 18.5357 52.5811 18.6245C52.3798 18.7133 52.1251 18.7548 51.829 18.7548C51.5744 18.7607 51.3197 18.7193 51.071 18.6304Z" fill="#353535"/>
<path d="M55.6125 18.6304C55.3638 18.5416 55.1743 18.4291 55.0381 18.287L55.1861 17.9909C55.3164 18.1211 55.4941 18.2277 55.7073 18.3106C55.9264 18.3936 56.1514 18.4291 56.3824 18.4291C56.7081 18.4291 56.9509 18.3699 57.1108 18.2514C57.2707 18.133 57.3536 17.979 57.3536 17.7895C57.3536 17.6474 57.3121 17.5289 57.2233 17.446C57.1345 17.3572 57.0279 17.2921 56.8976 17.2447C56.7673 17.1973 56.5897 17.1499 56.3646 17.0907C56.0922 17.0196 55.8731 16.9545 55.7132 16.8894C55.5533 16.8242 55.4112 16.7295 55.2987 16.5992C55.1861 16.4689 55.1269 16.2912 55.1269 16.0662C55.1269 15.8826 55.1743 15.7168 55.269 15.5687C55.3638 15.4207 55.5118 15.2963 55.7132 15.2075C55.9145 15.1187 56.1633 15.0713 56.4594 15.0713C56.6666 15.0713 56.868 15.1009 57.0693 15.1542C57.2707 15.2134 57.4424 15.2904 57.5846 15.3911L57.4543 15.699C57.3003 15.5984 57.1404 15.5214 56.9687 15.474C56.7969 15.4266 56.6252 15.397 56.4594 15.397C56.1396 15.397 55.9027 15.4562 55.7428 15.5806C55.5829 15.7049 55.5 15.8589 55.5 16.0543C55.5 16.1965 55.5415 16.3149 55.6303 16.4037C55.7191 16.4926 55.8257 16.5577 55.9619 16.6051C56.0922 16.6525 56.2758 16.6999 56.4949 16.7591C56.7614 16.8242 56.9746 16.8894 57.1404 16.9545C57.3062 17.0196 57.4424 17.1144 57.555 17.2447C57.6675 17.375 57.7267 17.5467 57.7267 17.7717C57.7267 17.9553 57.6793 18.1211 57.5786 18.2692C57.478 18.4172 57.3299 18.5357 57.1286 18.6245C56.9272 18.7133 56.6726 18.7548 56.3765 18.7548C56.1159 18.7607 55.8553 18.7193 55.6125 18.6304Z" fill="#353535"/>
<path d="M58.5679 15.1069H58.9528V18.7312H58.5679V15.1069Z" fill="#353535"/>
<path d="M63.8977 15.1069V18.7312H63.5305V15.8294L62.1092 18.2693H61.9257L60.5044 15.8472V18.7312H60.1372V15.1069H60.4511L62.0263 17.7955L63.5838 15.1069H63.8977Z" fill="#353535"/>
<path d="M67.5225 15.4386C67.783 15.6577 67.9133 15.9656 67.9133 16.3506C67.9133 16.7355 67.783 17.0375 67.5225 17.2566C67.2619 17.4758 66.9006 17.5883 66.4328 17.5883H65.4616V18.7312H65.0767V15.1069H66.4328C66.8947 15.1069 67.256 15.2195 67.5225 15.4386ZM67.2441 17.0138C67.4336 16.8539 67.5284 16.6348 67.5284 16.3506C67.5284 16.0545 67.4336 15.8294 67.2441 15.6755C67.0546 15.5156 66.7822 15.4386 66.421 15.4386H65.4557V17.2507H66.421C66.7822 17.2507 67.0546 17.1737 67.2441 17.0138Z" fill="#353535"/>
<path d="M68.7422 15.1069H69.1271V18.3996H71.1584V18.7312H68.7481V15.1069H68.7422Z" fill="#353535"/>
<path d="M74.3557 18.3996V18.7312H71.7915V15.1069H74.2788V15.4386H72.1764V16.7296H74.0478V17.0553H72.1764V18.3996H74.3557Z" fill="#353535"/>
</svg>
