<svg width="168" height="24" viewBox="0 0 168 24" fill="none" xmlns="http://www.w3.org/2000/svg">
<path d="M79.424 0.146484V15.3993H77.8804V3.19704L71.889 13.4607H71.1282L65.1295 3.26288V15.3993H63.5859V0.146484H64.9174L71.5452 11.4562L78.1072 0.146484H79.424V0.146484Z" fill="#EAEAEA"/>
<path d="M93.9598 11.3245H85.4592L83.6303 15.3993H81.9551L88.9267 0.146484H90.5142L97.4858 15.3993H95.7887L93.9598 11.3245ZM93.3672 10.0151L89.7095 1.82173L86.0517 10.0151H93.3672Z" fill="#EAEAEA"/>
<path d="M110.434 15.3993L106.944 10.4979C106.549 10.5418 106.147 10.5637 105.723 10.5637H101.626V15.3993H100.017V0.146484H105.723C107.669 0.146484 109.198 0.614675 110.302 1.54374C111.407 2.47281 111.955 3.75302 111.955 5.37705C111.955 6.56948 111.656 7.5717 111.048 8.39835C110.448 9.21768 109.585 9.81023 108.466 10.176L112.19 15.4066H110.434V15.3993ZM109.146 8.1862C109.944 7.52049 110.346 6.58411 110.346 5.37705C110.346 4.14074 109.944 3.19704 109.146 2.53133C108.349 1.87294 107.193 1.53643 105.679 1.53643H101.626V9.18842H105.679C107.193 9.18842 108.349 8.85191 109.146 8.1862Z" fill="#EAEAEA"/>
<path d="M120.5 8.23009L117.384 11.3904V15.3993H115.774V0.146484H117.384V9.36399L126.338 0.146484H128.189L121.583 7.0523L128.642 15.3993H126.726L120.5 8.23009Z" fill="#EAEAEA"/>
<path d="M142.052 14.002V15.3993H131.269V0.146484H141.73V1.54374H132.885V6.96451H140.771V8.33982H132.885V14.002H142.052V14.002Z" fill="#EAEAEA"/>
<path d="M148.804 1.54374H143.441V0.146484H155.775V1.54374H150.413V15.4066H148.804V1.54374Z" fill="#EAEAEA"/>
<path d="M159.06 14.9821C158.021 14.6163 157.217 14.1408 156.653 13.541L157.282 12.2973C157.831 12.846 158.57 13.2995 159.484 13.6361C160.399 13.9799 161.343 14.1481 162.316 14.1481C163.684 14.1481 164.708 13.8994 165.388 13.3946C166.068 12.8899 166.412 12.2461 166.412 11.4414C166.412 10.8342 166.229 10.3441 165.856 9.97832C165.483 9.61254 165.03 9.33455 164.496 9.13704C163.961 8.93952 163.208 8.72737 162.25 8.49327C161.101 8.20065 160.187 7.92266 159.506 7.65199C158.826 7.38132 158.241 6.97165 157.751 6.42299C157.261 5.87433 157.019 5.12084 157.019 4.17714C157.019 3.40901 157.224 2.70673 157.626 2.0776C158.036 1.44846 158.658 0.943697 159.499 0.563292C160.34 0.182887 161.386 0 162.637 0C163.508 0 164.364 0.117048 165.198 0.358459C166.032 0.599869 166.756 0.929066 167.363 1.35336L166.822 2.64089C166.185 2.21659 165.498 1.90202 164.774 1.68988C164.049 1.47773 163.332 1.37531 162.637 1.37531C161.299 1.37531 160.296 1.63135 159.616 2.15075C158.943 2.67015 158.607 3.32854 158.607 4.14788C158.607 4.75506 158.789 5.2452 159.163 5.61829C159.536 5.99138 159.996 6.26937 160.56 6.46688C161.116 6.6644 161.869 6.87655 162.813 7.11065C163.932 7.38864 164.839 7.65931 165.527 7.92998C166.215 8.20065 166.8 8.603 167.283 9.15167C167.766 9.69301 168 10.4319 168 11.3609C168 12.1291 167.795 12.8314 167.378 13.4605C166.961 14.0896 166.332 14.5944 165.468 14.9675C164.613 15.3406 163.559 15.5234 162.308 15.5234C161.182 15.5308 160.099 15.3479 159.06 14.9821Z" fill="#EAEAEA"/>
<path d="M56.7461 0.102539H60.2795V15.3773H56.7461V0.102539Z" fill="#EAEAEA"/>
<path d="M49.6361 0.102539V9.36394L42.0499 0.102539H39.1383H38.5531V8.52266C38.5531 9.94186 38.2605 10.966 37.6753 11.6244C37.09 12.2828 36.256 12.612 35.1587 12.612C32.8982 12.612 31.7717 11.266 31.7717 8.52997V0.102539H28.2383V8.66897C28.2383 10.8929 28.8601 12.6413 30.0598 13.8483C31.2596 15.0481 32.9787 15.6699 35.166 15.6699C37.3534 15.6699 39.0286 15.0481 40.2722 13.8483C41.472 12.6486 42.0938 10.9294 42.0938 8.66897V5.46479L42.679 6.12318L50.2213 15.3773H53.1402V0.102539H49.6361Z" fill="#EAEAEA"/>
<path d="M21.0905 0.102539H2.24585C1.00222 0.102539 0 1.11208 0 2.31181V21.1931C0 22.4294 1.00222 23.4389 2.24585 23.4389H21.0978C22.3342 23.4389 23.3437 22.4367 23.3437 21.1931V2.31181C23.3364 1.11208 22.3342 0.102539 21.0905 0.102539ZM21.6611 11.7561H11.4487V21.9685H10.9805C10.9805 16.577 6.62782 12.2243 1.23632 12.2243V11.7561H11.4487V1.54369H11.9169C11.9169 6.9352 16.2696 11.2879 21.6611 11.2879V11.7561Z" fill="#EAEAEA"/>
<path d="M29.8394 19.0713H28.2666V18.6616H31.8878V19.0713H30.3149V23.1387H29.8394V19.0713V19.0713Z" fill="#EAEAEA"/>
<path d="M35.6917 23.1387L34.6675 21.6975C34.5504 21.7122 34.4334 21.7195 34.309 21.7195H33.1093V23.1387H32.6338V18.6616H34.309C34.8796 18.6616 35.3259 18.8006 35.6551 19.0713C35.977 19.342 36.1379 19.7224 36.1379 20.1979C36.1379 20.549 36.0501 20.8416 35.8745 21.083C35.699 21.3245 35.4429 21.5 35.1137 21.6024L36.2111 23.1387H35.6917V23.1387ZM35.3186 21.0172C35.5527 20.8197 35.6697 20.549 35.6697 20.1906C35.6697 19.8248 35.5527 19.5468 35.3186 19.3566C35.0845 19.1591 34.748 19.064 34.3017 19.064H33.1093V21.3098H34.3017C34.7406 21.3171 35.0845 21.2147 35.3186 21.0172Z" fill="#EAEAEA"/>
<path d="M40.0666 21.939H37.572L37.038 23.1387H36.5479L38.5962 18.6616H39.0644L41.1127 23.1387H40.6153L40.0666 21.939ZM39.8983 21.5586L38.823 19.1518L37.7476 21.5586H39.8983Z" fill="#EAEAEA"/>
<path d="M41.8438 18.6616H43.6653C44.1408 18.6616 44.5578 18.7567 44.9163 18.9469C45.282 19.1371 45.56 19.4005 45.7575 19.737C45.955 20.0735 46.0575 20.4612 46.0575 20.9002C46.0575 21.3318 45.955 21.7195 45.7575 22.0633C45.56 22.3998 45.2747 22.6632 44.9163 22.8534C44.5505 23.0436 44.1335 23.1387 43.6653 23.1387H41.8438V18.6616ZM43.6434 22.729C44.0384 22.729 44.3822 22.6486 44.6748 22.4949C44.9675 22.3413 45.1942 22.1218 45.3552 21.8512C45.5161 21.5732 45.5966 21.2586 45.5966 20.9002C45.5966 20.5417 45.5161 20.2271 45.3552 19.9491C45.1942 19.6712 44.9675 19.459 44.6748 19.3054C44.3822 19.1518 44.0384 19.0713 43.6434 19.0713H42.3193V22.729H43.6434Z" fill="#EAEAEA"/>
<path d="M47.126 18.6616H47.6015V23.1387H47.126V18.6616Z" fill="#EAEAEA"/>
<path d="M52.8027 18.6616V23.1387H52.4149L49.54 19.5029V23.1387H49.0645V18.6616H49.4522L52.3345 22.2974V18.6616H52.8027Z" fill="#EAEAEA"/>
<path d="M57.4118 20.9001H57.8653V22.6046C57.6532 22.7875 57.4118 22.9265 57.1265 23.0289C56.8412 23.124 56.5412 23.1752 56.2267 23.1752C55.7804 23.1752 55.3781 23.0801 55.0196 22.8826C54.6612 22.6851 54.3832 22.4144 54.1783 22.0706C53.9735 21.7194 53.8711 21.3317 53.8711 20.9001C53.8711 20.4685 53.9735 20.0808 54.1783 19.7296C54.3832 19.3858 54.6612 19.1078 55.0196 18.9176C55.3781 18.7201 55.7804 18.625 56.234 18.625C56.5778 18.625 56.8924 18.6762 57.1777 18.7859C57.463 18.8957 57.7044 19.0566 57.9019 19.2688L57.6093 19.5687C57.2582 19.2176 56.8046 19.042 56.2633 19.042C55.8975 19.042 55.5756 19.1225 55.283 19.2834C54.9904 19.4443 54.7636 19.6638 54.5953 19.9491C54.4271 20.2344 54.3466 20.549 54.3466 20.9001C54.3466 21.2513 54.4271 21.5658 54.5953 21.8438C54.7636 22.1218 54.9904 22.3486 55.2757 22.5095C55.5683 22.6705 55.8902 22.7509 56.2559 22.7509C56.7168 22.7509 57.1045 22.6339 57.4264 22.4071V20.9001H57.4118Z" fill="#EAEAEA"/>
<path d="M60.8789 18.6616H61.3544V23.1387H60.8789V18.6616Z" fill="#EAEAEA"/>
<path d="M63.0885 23.0143C62.7813 22.9045 62.5472 22.7656 62.3789 22.59L62.5618 22.2242C62.7227 22.3851 62.9422 22.5168 63.2056 22.6192C63.4762 22.7217 63.7542 22.7656 64.0395 22.7656C64.4419 22.7656 64.7418 22.6924 64.9393 22.5461C65.1368 22.3998 65.2393 22.2096 65.2393 21.9755C65.2393 21.7999 65.1881 21.6536 65.0783 21.5512C64.9686 21.4415 64.8369 21.361 64.676 21.3025C64.515 21.2439 64.2956 21.1854 64.0176 21.1123C63.6811 21.0245 63.4104 20.944 63.2129 20.8635C63.0154 20.7831 62.8398 20.666 62.7008 20.5051C62.5545 20.3441 62.4886 20.1247 62.4886 19.8467C62.4886 19.6199 62.5472 19.4151 62.6642 19.2322C62.7813 19.0493 62.9641 18.8957 63.2129 18.7859C63.4616 18.6762 63.7688 18.6177 64.1346 18.6177C64.3907 18.6177 64.6394 18.6543 64.8881 18.7201C65.1295 18.7932 65.3417 18.8883 65.5246 19.0127L65.3636 19.3931C65.1734 19.2688 64.9759 19.1737 64.7638 19.1151C64.5516 19.0566 64.3395 19.02 64.1346 19.02C63.7396 19.02 63.447 19.0932 63.2495 19.2468C63.0519 19.4004 62.9495 19.5906 62.9495 19.832C62.9495 20.0076 63.0007 20.1539 63.1105 20.2637C63.2202 20.3734 63.3519 20.4539 63.5201 20.5124C63.6811 20.5709 63.9078 20.6294 64.1785 20.7026C64.5077 20.7831 64.7711 20.8635 64.9759 20.944C65.1807 21.0245 65.349 21.1415 65.488 21.3025C65.627 21.4634 65.7001 21.6755 65.7001 21.9535C65.7001 22.1803 65.6416 22.3851 65.5172 22.568C65.3929 22.7509 65.21 22.8972 64.954 23.007C64.7052 23.1167 64.3907 23.1679 64.0249 23.1679C63.7103 23.1752 63.3958 23.124 63.0885 23.0143Z" fill="#EAEAEA"/>
<path d="M68.6989 23.0143C68.3916 22.9045 68.1575 22.7656 67.9893 22.59L68.1721 22.2242C68.3331 22.3851 68.5525 22.5168 68.8159 22.6192C69.0866 22.7217 69.3646 22.7656 69.6499 22.7656C70.0522 22.7656 70.3522 22.6924 70.5497 22.5461C70.7472 22.3998 70.8496 22.2096 70.8496 21.9755C70.8496 21.7999 70.7984 21.6536 70.6887 21.5512C70.5789 21.4415 70.4473 21.361 70.2863 21.3025C70.1254 21.2439 69.9059 21.1854 69.6279 21.1123C69.2914 21.0245 69.0207 20.944 68.8232 20.8635C68.6257 20.7831 68.4501 20.666 68.3111 20.5051C68.1721 20.3441 68.099 20.1247 68.099 19.8467C68.099 19.6199 68.1575 19.4151 68.2746 19.2322C68.3916 19.0493 68.5745 18.8957 68.8232 18.7859C69.0719 18.6762 69.3792 18.6177 69.745 18.6177C70.001 18.6177 70.2497 18.6543 70.4985 18.7201C70.7472 18.7932 70.9593 18.8883 71.1349 19.0127L70.974 19.3931C70.7838 19.2688 70.5862 19.1737 70.3741 19.1151C70.162 19.0566 69.9498 19.02 69.745 19.02C69.3499 19.02 69.0573 19.0932 68.8598 19.2468C68.6623 19.4004 68.5599 19.5906 68.5599 19.832C68.5599 20.0076 68.6111 20.1539 68.7208 20.2637C68.8305 20.3734 68.9622 20.4539 69.1305 20.5124C69.2914 20.5709 69.5182 20.6294 69.7889 20.7026C70.1181 20.7831 70.3814 20.8635 70.5862 20.944C70.7911 21.0245 70.9593 21.1415 71.0983 21.3025C71.2373 21.4634 71.3105 21.6755 71.3105 21.9535C71.3105 22.1803 71.252 22.3851 71.1276 22.568C71.0032 22.7509 70.8203 22.8972 70.5716 23.007C70.3229 23.1167 70.0083 23.1679 69.6426 23.1679C69.3207 23.1752 68.9988 23.124 68.6989 23.0143Z" fill="#EAEAEA"/>
<path d="M72.3496 18.6616H72.8251V23.1387H72.3496V18.6616Z" fill="#EAEAEA"/>
<path d="M78.9334 18.6616V23.1387H78.4799V19.5541L76.7241 22.5681H76.4974L74.7416 19.5761V23.1387H74.2881V18.6616H74.6758L76.6217 21.9828L78.5457 18.6616H78.9334V18.6616Z" fill="#EAEAEA"/>
<path d="M83.4109 19.0713C83.7328 19.342 83.8938 19.7224 83.8938 20.1979C83.8938 20.6734 83.7328 21.0465 83.4109 21.3171C83.0891 21.5878 82.6428 21.7268 82.0649 21.7268H80.8652V23.1387H80.3896V18.6616H82.0649C82.6355 18.6616 83.0817 18.8006 83.4109 19.0713ZM83.0671 21.0172C83.3012 20.8197 83.4183 20.549 83.4183 20.1979C83.4183 19.8321 83.3012 19.5541 83.0671 19.3639C82.833 19.1664 82.4965 19.0713 82.0503 19.0713H80.8578V21.3098H82.0503C82.4965 21.3098 82.833 21.2147 83.0671 21.0172Z" fill="#EAEAEA"/>
<path d="M84.918 18.6616H85.3935V22.729H87.9027V23.1387H84.9253V18.6616H84.918Z" fill="#EAEAEA"/>
<path d="M91.8522 22.729V23.1387H88.6846V18.6616H91.7571V19.0713H89.1601V20.6661H91.4718V21.0684H89.1601V22.729H91.8522V22.729Z" fill="#EAEAEA"/>
</svg>
