<svg width="63" height="58" viewBox="0 0 63 58" fill="none" xmlns="http://www.w3.org/2000/svg">
<path d="M46.085 55.7026C46.5747 55.7026 46.9625 55.7026 47.4472 55.7026C47.4472 55.377 47.4472 55.0765 47.4472 54.7759C47.4472 42.7794 47.4472 30.7828 47.4488 18.7879C47.4488 18.4774 47.4439 18.1651 47.4751 17.8563C47.5951 16.6474 48.5038 15.7575 49.7017 15.7491C52.7843 15.7291 55.8653 15.7291 58.9479 15.7475C60.177 15.7558 61.1251 16.6524 61.1892 17.903C61.2517 19.0985 61.2303 20.3006 61.2057 21.4995C61.1925 22.1373 60.7768 22.5347 60.2296 22.5313C59.6841 22.528 59.2815 22.1289 59.2634 21.4878C59.2355 20.4659 59.2371 19.4441 59.2568 18.4223C59.2667 17.908 59.081 17.7243 58.565 17.7277C55.811 17.7477 53.0571 17.736 50.3031 17.7377C49.4223 17.7377 49.4174 17.7394 49.4174 18.6176C49.4157 22.1273 49.4174 25.6369 49.4174 29.1482C49.4174 37.7002 49.4174 46.2539 49.4174 54.806C49.4174 55.0898 49.4174 55.372 49.4174 55.6909C52.712 55.6909 55.9376 55.6909 59.2519 55.6909C59.2519 55.392 59.2519 55.1115 59.2519 54.8327C59.2519 45.2805 59.2519 35.7284 59.2535 26.1745C59.2535 25.8873 59.2453 25.5918 59.3028 25.313C59.4047 24.8154 59.7481 24.5466 60.2395 24.5483C60.7308 24.5499 61.0725 24.8204 61.1711 25.3197C61.2254 25.5985 61.2204 25.894 61.2204 26.1812C61.2221 35.7117 61.2221 45.2421 61.2221 54.7726C61.2221 55.0598 61.2221 55.3453 61.2221 55.731C61.4751 55.731 61.6855 55.716 61.8941 55.7343C62.4627 55.7844 62.8521 56.1885 62.8571 56.7161C62.862 57.2454 62.4742 57.6645 61.9139 57.7196C61.7183 57.7396 61.5211 57.7262 61.324 57.7262C41.5416 57.7262 21.7608 57.7262 1.97841 57.7262C1.75987 57.7262 1.53804 57.7463 1.32442 57.7129C0.778881 57.6277 0.445312 57.2921 0.445312 56.7278C0.445312 56.1634 0.777237 55.8295 1.32278 55.741C1.51503 55.7109 1.7155 55.7276 1.91268 55.7276C5.62794 55.7276 9.34484 55.7276 13.0601 55.7276C13.2967 55.7276 13.535 55.7276 13.8357 55.7276C13.8505 55.4505 13.8735 55.2167 13.8735 54.983C13.8751 50.4281 13.8751 45.8749 13.8751 41.3201C13.8751 40.4001 13.8718 40.4001 12.9632 40.3984C10.2963 40.3984 7.62935 40.3984 4.96245 40.3984C4.04226 40.3984 4.04062 40.4001 4.04062 41.3752C4.04062 45.2405 4.04062 49.1057 4.04062 52.971C4.04062 53.1931 4.05048 53.4168 4.03076 53.6372C3.97653 54.27 3.58217 54.6674 3.03663 54.654C2.51738 54.6424 2.14109 54.2567 2.08358 53.6623C2.06714 53.4853 2.07372 53.3066 2.07372 53.1296C2.07372 49.1525 2.07207 45.177 2.07372 41.1999C2.07536 39.253 2.91996 38.3982 4.82935 38.3982C7.62771 38.3982 10.4244 38.3965 13.2228 38.3982C14.9481 38.3998 15.8404 39.2998 15.8437 41.0696C15.8502 45.6679 15.8453 50.2662 15.847 54.8644C15.847 55.1266 15.847 55.387 15.847 55.6859C16.3153 55.6859 16.7211 55.6859 17.2092 55.6859C17.2092 55.4154 17.2092 55.1566 17.2092 54.8978C17.2092 44.5459 17.2092 34.1939 17.2092 23.8403C17.2092 21.9252 18.0488 21.067 19.9188 21.067C22.7171 21.0653 25.5139 21.0653 28.3122 21.067C30.0803 21.0687 30.9791 21.9753 30.9791 23.7652C30.9808 34.0954 30.9808 44.4257 30.9808 54.7559C30.9808 55.0431 30.9808 55.3319 30.9808 55.6709C31.4096 55.6709 31.8122 55.6709 32.3183 55.6709C32.3183 55.4405 32.3183 55.185 32.3183 54.9295C32.3183 46.7983 32.3183 38.6686 32.3183 30.5374C32.3183 28.6006 33.1728 27.7323 35.0756 27.7307C37.8953 27.7307 40.715 27.7273 43.5348 27.7323C45.1829 27.734 46.0866 28.6506 46.0866 30.332C46.0899 38.5067 46.0883 46.6814 46.0883 54.8577C46.085 55.1232 46.085 55.3854 46.085 55.7026ZM28.9859 55.7109C28.9958 55.5022 29.0073 55.3503 29.0073 55.2C29.0089 44.7379 29.004 34.2758 29.0188 23.812C29.0188 23.2142 28.8052 23.0556 28.2481 23.0606C25.5155 23.0823 22.7845 23.0706 20.0519 23.0706C19.1744 23.0706 19.1728 23.0723 19.1728 23.9422C19.1728 34.2941 19.1728 44.6444 19.1728 54.9963C19.1728 55.2284 19.1728 55.4622 19.1728 55.7109C22.4838 55.7109 25.693 55.7109 28.9859 55.7109ZM44.0885 55.7109C44.1017 55.5423 44.1164 55.4354 44.1164 55.3286C44.1181 47.0203 44.1132 38.7137 44.1263 30.4055C44.1279 29.8662 43.9308 29.7242 43.4312 29.7276C40.6772 29.7459 37.9232 29.7359 35.1693 29.7359C34.2836 29.7359 34.2819 29.7376 34.2819 30.6125C34.2819 38.7421 34.2819 46.8717 34.2819 55.0013C34.2819 55.2334 34.2819 55.4672 34.2819 55.7093C37.5979 55.7109 40.8087 55.7109 44.0885 55.7109Z" fill="white"/>
<path d="M27.1474 11.4115C25.8904 12.9526 24.423 13.4618 22.6007 12.7739C22.4495 12.7172 22.134 12.8992 21.9927 13.0595C19.403 15.978 16.8282 18.9116 14.25 21.8419C13.4645 22.7352 12.6791 23.6268 11.869 24.5484C12.546 25.6053 12.7514 26.729 12.362 27.9178C11.7458 29.8012 9.75586 30.8297 7.88591 30.252C6.03567 29.681 4.94624 27.6574 5.46713 25.7606C5.98638 23.8722 7.87276 22.7252 9.746 23.1793C10.1075 23.2678 10.3589 23.2812 10.6498 22.9489C13.9263 19.1938 17.2209 15.4554 20.5188 11.7204C20.8047 11.3965 20.9082 11.1477 20.7291 10.6818C19.9568 8.67491 21.084 6.44757 23.1019 5.87989C25.1493 5.30385 27.2197 6.57781 27.5861 8.71331C27.6913 9.32274 27.9559 9.60658 28.4702 9.85202C31.1174 11.1126 33.7481 12.4083 36.3739 13.6872C38.6054 12.0109 39.8131 11.9658 41.854 13.5169C44.935 10.9707 48.0291 8.41277 51.0887 5.88322C50.9688 5.33056 50.8061 4.84302 50.7634 4.34546C50.6221 2.72254 51.5488 1.2499 53.0277 0.667185C54.5082 0.0844713 56.1859 0.545299 57.1587 1.80256C58.1462 3.08152 58.1873 4.88309 57.2556 6.20714C56.3354 7.51616 54.6791 8.09219 53.192 7.52117C52.658 7.3158 52.3376 7.40596 51.9235 7.75325C49.0577 10.1526 46.1739 12.5335 43.2836 14.9028C42.9319 15.1916 42.7709 15.4671 42.7857 15.9513C42.8498 18.0301 41.2805 19.6997 39.2873 19.7365C37.258 19.7732 35.6476 18.1553 35.5852 16.0482C35.5786 15.8278 35.4702 15.4905 35.3108 15.412C32.6094 14.0663 29.8932 12.7506 27.1474 11.4115ZM24.0796 7.74657C23.189 7.74657 22.461 8.48457 22.4545 9.39287C22.4479 10.3078 23.161 11.0575 24.05 11.0709C24.9603 11.0842 25.731 10.3095 25.7228 9.38786C25.7162 8.49458 24.9669 7.74657 24.0796 7.74657ZM39.1904 17.7379C40.081 17.7429 40.8171 17.0116 40.8336 16.1033C40.85 15.1666 40.1056 14.4002 39.1871 14.4102C38.3047 14.4202 37.5636 15.1816 37.5653 16.0765C37.5653 16.9698 38.3113 17.7329 39.1904 17.7379ZM55.9592 4.08666C55.969 3.17836 55.2559 2.43035 54.3603 2.41366C53.4681 2.39696 52.7303 3.11826 52.7073 4.02989C52.6826 4.97326 53.4188 5.74464 54.3357 5.73796C55.2296 5.73295 55.9493 5.00164 55.9592 4.08666ZM10.5807 26.744C10.589 25.8357 9.87253 25.0894 8.97863 25.0744C8.08638 25.0593 7.35023 25.7823 7.32887 26.694C7.3075 27.6356 8.04366 28.407 8.96056 28.3987C9.85445 28.3903 10.5725 27.6574 10.5807 26.744Z" fill="white"/>
</svg>
