<svg width="63" height="64" viewBox="0 0 63 64" fill="none" xmlns="http://www.w3.org/2000/svg">
<g clip-path="url(#clip0_1_293)">
<path d="M14.1531 0C15.9781 0.370676 17.8014 0.741351 19.6264 1.11036C19.7267 1.13039 19.8303 1.14041 19.9289 1.16546C20.5356 1.31907 20.871 1.75821 20.7789 2.26914C20.6819 2.80177 20.2446 3.10733 19.6149 3.00214C18.6251 2.83517 17.6469 2.59974 16.6571 2.43611C15.4059 2.22906 14.1465 1.88677 12.8953 1.91349C10.0082 1.97694 7.93003 3.47634 6.51114 6.12951C21.0289 7.71239 35.4611 9.28693 49.9311 10.8648C49.9311 10.232 49.9311 9.65594 49.9311 9.02479C48.4465 8.72758 46.9667 8.42703 45.4837 8.13483C38.2462 6.70556 31.0088 5.27629 23.7713 3.84701C23.671 3.82698 23.5723 3.79859 23.472 3.77188C22.8686 3.61325 22.553 3.17746 22.6598 2.65317C22.7684 2.12387 23.2353 1.83501 23.8387 1.95022C25.5091 2.27248 27.1763 2.60475 28.8451 2.93368C35.9823 4.34459 43.1178 5.7605 50.2567 7.15471C50.4688 7.19645 50.7746 7.08625 50.9488 6.93932C52.8807 5.29298 54.7945 3.62327 56.7132 1.96024C57.943 0.893295 59.2402 1.33243 59.5164 2.93535C60.3681 7.88604 60.9238 12.8685 60.8909 17.901C60.8646 21.9734 60.4634 26.0041 59.3191 29.9312C59.0972 30.6926 58.5201 31.0332 57.9529 30.716C57.43 30.4238 57.4267 29.9646 57.5369 29.4203C57.9529 27.3866 58.4149 25.3562 58.7059 23.3041C59.1827 19.9313 59.1744 16.5285 58.8834 13.1423C58.622 10.0967 58.188 7.06788 57.8279 4.03068C57.8131 3.91046 57.772 3.79358 57.7292 3.61826C57.5961 3.70342 57.4941 3.75351 57.4103 3.82698C55.6445 5.35142 53.877 6.87253 52.1244 8.412C51.9633 8.55393 51.8169 8.81774 51.8153 9.02645C51.8005 18.836 51.8038 28.6472 51.8054 38.4568C51.8054 38.5152 51.8268 38.572 51.8827 38.8592C52.7426 37.9141 53.5844 37.1293 54.2552 36.216C54.9737 35.2376 55.5031 34.1189 56.1788 33.1054C56.3663 32.8248 56.7839 32.5477 57.093 32.5493C57.3643 32.5527 57.6898 32.9083 57.8789 33.1888C57.9824 33.3408 57.9167 33.6864 57.8197 33.8935C56.4041 36.8789 54.4591 39.4052 51.6443 41.1701C51.2678 41.4055 50.8979 41.6209 50.4441 41.3671C49.9689 41.1016 49.9508 40.6541 49.9525 40.1799C49.9558 31.3071 49.9558 22.4342 49.9558 13.5614C49.9558 13.3143 49.9558 13.0672 49.9558 12.7549C46.6708 12.3976 43.4236 12.0453 40.0992 11.6846C40.0992 12.8234 40.1008 13.8803 40.0992 14.9372C40.0959 16.6337 39.2771 17.4635 37.605 17.4668C37.2203 17.4668 36.8372 17.4668 36.367 17.4668C37.799 28.704 39.2212 39.8593 40.6516 51.0981C41.0183 51.0981 41.3602 51.0898 41.7022 51.0998C42.6854 51.1265 43.2165 51.6525 43.2362 52.6593C43.2576 53.7213 43.2428 54.7832 43.2428 55.8468C43.2428 56.0722 43.2428 56.2976 43.2428 56.6099C43.7837 56.6099 44.2671 56.6065 44.7504 56.6099C46.0773 56.6199 46.7398 57.2961 46.7481 58.6586C46.7546 59.7422 46.753 60.8242 46.7563 61.9079C46.7563 61.9479 46.7727 61.988 46.8007 62.1182C47.0177 62.1182 47.2545 62.1182 47.4912 62.1182C52.2082 62.1182 56.9253 62.1182 61.6423 62.1182C61.8478 62.1182 62.0583 62.0982 62.2556 62.1433C62.7028 62.2468 62.9806 62.5457 62.9954 63.0182C63.0119 63.5208 62.7373 63.843 62.2654 63.9633C62.0714 64.0117 61.8577 63.9917 61.6538 63.9917C41.5542 63.9933 21.4547 63.9917 1.35513 64.0017C0.779679 64.0017 0.304524 63.9015 -0.00292969 63.3688C-0.00292969 63.1601 -0.00292969 62.9514 -0.00292969 62.7444C0.424546 61.9579 1.16605 62.1049 1.84672 62.1283C2.23474 62.1416 2.42217 62.0281 2.54548 61.634C3.24095 59.3933 3.95286 57.1575 4.68943 54.9318C4.81603 54.5461 4.72067 54.3491 4.4461 54.0903C2.22323 51.9914 2.20021 48.5518 4.37705 46.4179C4.87193 45.9337 5.37504 45.8903 5.78607 46.2961C6.17902 46.6834 6.13298 47.2194 5.70058 47.7387C5.42436 48.0693 5.13006 48.4049 4.94263 48.7873C4.23072 50.2399 4.69108 52.0198 5.98172 52.9649C7.30525 53.935 9.05297 53.8164 10.2614 52.6193C11.9039 50.9896 13.5152 49.3266 15.1396 47.6769C16.0964 46.7051 17.0714 45.7501 18.0036 44.7549C19.2877 43.3824 19.2548 41.337 17.9642 40.0313C16.6719 38.7239 14.6693 38.7106 13.3129 40.0079C12.9249 40.3786 12.555 40.7693 12.1785 41.1517C10.975 42.3739 9.77474 43.5995 8.56631 44.8167C8.0484 45.3376 7.52228 45.3794 7.11289 44.9586C6.72981 44.5662 6.76598 44.0069 7.23456 43.5243C8.31475 42.4123 9.39824 41.3036 10.4998 40.2133C10.799 39.9161 10.9371 39.6172 10.9355 39.1814C10.924 30.3503 10.9273 21.5192 10.9273 12.6881C10.9273 12.4694 10.9273 12.2507 10.9273 12.0002C10.6445 12.0002 10.462 12.0002 10.2779 12.0002C8.64851 11.9919 7.88892 11.2088 7.88563 9.53238C7.88563 9.08322 7.88563 8.63407 7.88563 8.16822C6.89915 8.06303 6.00474 7.96953 5.11033 7.86935C4.25045 7.7725 3.8986 7.13634 4.29155 6.35993C4.60065 5.75048 4.93277 5.15106 5.27639 4.55998C6.30233 2.80177 7.73273 1.49439 9.6054 0.743021C10.3962 0.425776 11.2413 0.243778 12.0601 0C12.7589 0 13.456 0 14.1531 0ZM12.8 37.9625C14.8798 36.9941 16.2806 36.9206 17.8327 37.6653C21.0584 39.2132 21.8 43.4876 19.2631 46.1224C16.9547 48.5201 14.5954 50.8661 12.2755 53.2504C12.1111 53.4207 11.9565 53.7747 12.019 53.9717C12.8197 56.5698 13.6582 59.1578 14.5 61.7426C14.5477 61.8878 14.7121 62.0949 14.8255 62.0982C15.8219 62.1266 16.8199 62.1149 17.8622 62.1149C17.8622 60.8559 17.8475 59.6721 17.8672 58.4883C17.8869 57.3278 18.5873 56.6316 19.7218 56.6115C20.2479 56.6015 20.7757 56.6099 21.3708 56.6099C21.3708 56.3143 21.3708 56.0906 21.3708 55.8668C21.3708 54.7832 21.356 53.7012 21.3791 52.6176C21.4004 51.6525 21.9364 51.1299 22.89 51.0998C23.2336 51.0898 23.5773 51.0981 23.9603 51.0981C25.3924 39.8643 26.8146 28.6973 28.245 17.4668C27.8241 17.4668 27.5199 17.4668 27.2157 17.4668C25.2411 17.4668 24.5128 16.7255 24.5128 14.7135C24.5128 13.1556 24.5128 11.5961 24.5128 9.97986C21.5862 9.66261 18.709 9.35038 15.7791 9.03313C15.7972 9.97151 15.8909 10.9232 15.1116 11.4125C14.4556 11.8249 13.6335 11.9601 12.8016 12.2473C12.8 20.6827 12.8 29.2967 12.8 37.9625ZM44.8622 62.0982C44.8622 60.8693 44.8622 59.6955 44.8622 58.5233C36.4656 58.5233 28.1151 58.5233 19.7514 58.5233C19.7514 59.7356 19.7514 60.9077 19.7514 62.0982C28.1348 62.0982 36.4722 62.0982 44.8622 62.0982ZM41.3652 53.0083C35.3131 53.0083 29.2989 53.0083 23.2649 53.0083C23.2649 54.2172 23.2649 55.3876 23.2649 56.5598C29.3268 56.5598 35.3411 56.5598 41.3652 56.5598C41.3652 55.3542 41.3652 54.1971 41.3652 53.0083ZM25.8215 51.0931C27.1056 51.0931 28.2926 51.1015 29.4781 51.0848C29.6491 51.0831 29.8266 50.9763 29.9845 50.8878C32.0922 49.7307 34.1984 48.5685 36.3029 47.4048C36.4492 47.3246 36.5824 47.2194 36.7945 47.0792C33.424 45.7517 30.162 44.4661 26.8359 43.157C26.4956 45.8102 26.1651 48.4032 25.8215 51.0931ZM26.3559 10.1869C26.3559 11.8015 26.3822 13.3159 26.3427 14.8287C26.3263 15.4432 26.5351 15.6068 27.1187 15.6034C30.5402 15.5801 33.9633 15.5918 37.3847 15.5918C37.5491 15.5918 37.7366 15.6402 37.8697 15.5734C38.0226 15.4983 38.2331 15.3229 38.2364 15.1877C38.2643 13.9671 38.2528 12.7449 38.2528 11.4793C34.2707 11.0468 30.3511 10.621 26.3559 10.1869ZM10.3469 54.8817C9.11051 55.4861 7.84289 55.6431 6.50785 55.2858C5.77292 57.5833 5.05772 59.8207 4.33101 62.0965C7.1392 62.0965 9.8586 62.0965 12.6553 62.0965C11.8858 59.6955 11.1312 57.3345 10.3469 54.8817ZM38.0868 45.5747C37.7645 43.0401 37.4571 40.6241 37.1414 38.1345C34.3036 39.3751 31.5415 40.5823 28.6379 41.853C31.8489 43.1169 34.9086 44.3225 38.0868 45.5747ZM35.5597 36.7837C33.0031 35.5331 30.5879 34.351 28.1101 33.1404C27.7945 35.6216 27.4936 37.9809 27.1812 40.4454C29.9927 39.2165 32.7088 38.0293 35.5597 36.7837ZM36.7813 35.301C36.4689 32.8682 36.1713 30.544 35.8622 28.1296C33.6838 29.3518 31.622 30.5073 29.4649 31.7161C31.9426 32.93 34.3102 34.0905 36.7813 35.301ZM29.3844 23.1455C29.0868 25.4865 28.804 27.7239 28.4998 30.1116C30.6405 28.9094 32.6249 27.7957 34.69 26.6369C32.8798 25.4464 31.1847 24.3293 29.3844 23.1455ZM35.4561 24.9037C35.1487 22.4977 34.856 20.2085 34.5486 17.8008C33.0935 19.0881 31.7338 20.292 30.333 21.5309C32.0659 22.673 33.7117 23.7566 35.4561 24.9037ZM38.4435 48.3632C36.806 49.2681 35.2704 50.1164 33.5851 51.0481C35.443 51.0481 37.0904 51.0481 38.7872 51.0481C38.6721 50.1598 38.5652 49.3232 38.4435 48.3632ZM9.732 8.36692C9.732 8.81273 9.75173 9.20344 9.72707 9.59249C9.70076 9.9999 9.85366 10.1418 10.2581 10.1318C11.1377 10.1084 12.019 10.1251 12.9002 10.1251C14.0429 10.1251 14.0446 10.1251 13.8949 8.93462C13.8933 8.91625 13.8769 8.89956 13.8341 8.82275C12.5155 8.67582 11.1591 8.52554 9.732 8.36692ZM31.9196 17.6372C31.8999 17.5937 31.8801 17.552 31.8604 17.5086C31.3918 17.5086 30.9233 17.4885 30.4563 17.5219C30.3199 17.532 30.0996 17.6756 30.0782 17.7891C29.9845 18.2817 29.9499 18.7859 29.8759 19.4454C30.6438 18.7642 31.2817 18.2015 31.9196 17.6372Z" fill="white"/>
<path d="M56.5568 7.87256C56.7558 8.04788 57.1175 8.2232 57.2178 8.49703C57.3164 8.76919 57.2688 9.26009 57.083 9.44876C56.4056 10.1367 55.6624 10.7645 54.9028 11.3606C54.5181 11.6628 54.0726 11.5676 53.7454 11.1936C53.4363 10.8413 53.3722 10.3738 53.696 10.0582C54.431 9.34023 55.2333 8.69239 56.0192 8.02951C56.1179 7.94603 56.2872 7.9477 56.5568 7.87256Z" fill="white"/>
<path d="M53.002 29.4855C53.002 29.3202 52.9921 29.1532 53.0036 28.9879C53.0431 28.4068 53.4097 28.0178 53.9095 28.0161C54.3847 28.0144 54.7809 28.3784 54.8253 28.9194C54.8599 29.3302 54.8582 29.7493 54.8204 30.16C54.7678 30.7211 54.3995 31.0366 53.8882 31.0249C53.3752 31.0116 53.053 30.6827 53.0086 30.1083C52.9921 29.9029 53.0053 29.6942 53.0053 29.4871C53.0036 29.4855 53.0036 29.4855 53.002 29.4855Z" fill="white"/>
<path d="M5.61524 50.0829C5.61689 48.6853 6.69544 47.595 8.07322 47.5967C9.44443 47.6 10.5361 48.707 10.5329 50.0896C10.5296 51.4587 9.40662 52.5991 8.065 52.5975C6.71517 52.5958 5.61195 51.4637 5.61524 50.0829ZM8.77363 50.2064C8.77198 50.1113 8.76869 50.0178 8.76705 49.9226C8.52372 49.774 8.27052 49.4985 8.0387 49.5152C7.83482 49.5302 7.47969 49.9092 7.50929 50.0662C7.55368 50.3083 7.85455 50.6439 8.07651 50.6706C8.28861 50.6957 8.54016 50.3751 8.77363 50.2064Z" fill="white"/>
<path d="M17.7538 42.7179C17.7636 44.1088 16.6802 45.2325 15.3221 45.2425C13.9756 45.2525 12.846 44.1288 12.8312 42.7597C12.8148 41.3955 13.9312 40.2484 15.281 40.2417C16.6555 40.2351 17.7456 41.3254 17.7538 42.7179ZM15.4766 42.03C15.3813 42.0267 15.2843 42.0216 15.1889 42.0183C15.0212 42.2554 14.7023 42.5109 14.7269 42.7246C14.7532 42.9567 15.0738 43.2639 15.3155 43.3207C15.4619 43.3541 15.8416 42.9884 15.8614 42.7764C15.886 42.5426 15.618 42.2804 15.4766 42.03Z" fill="white"/>
<path d="M11.2185 44.7817C11.526 44.947 11.7644 45.0272 11.9403 45.1825C12.279 45.4797 12.5947 45.8086 12.8956 46.1459C13.2803 46.5783 13.2688 47.111 12.8972 47.48C12.5404 47.834 12.0357 47.8507 11.6312 47.4833C11.2679 47.1527 10.8782 46.8221 10.6135 46.4147C10.4507 46.1643 10.3899 45.7268 10.4935 45.453C10.5954 45.1808 10.9571 45.0088 11.2185 44.7817Z" fill="white"/>
<path d="M32.3032 12.71C33.0003 12.71 33.6974 12.695 34.3945 12.715C35.0012 12.7317 35.3514 13.0773 35.3613 13.6167C35.3711 14.151 35.0259 14.555 34.434 14.5667C33.02 14.5951 31.6044 14.5951 30.1905 14.5667C29.5953 14.555 29.25 14.1593 29.2549 13.6233C29.2599 13.0823 29.6068 12.7317 30.2135 12.715C30.9089 12.695 31.6061 12.71 32.3032 12.71Z" fill="white"/>
</g>
<defs>
<clipPath id="clip0_1_293">
<rect width="63" height="64" fill="white"/>
</clipPath>
</defs>
</svg>
