<svg width="1280" height="274" viewBox="0 0 1280 274" fill="none" xmlns="http://www.w3.org/2000/svg">
<g clip-path="url(#clip0_1_33)">
<path d="M-175.23 0.75425C-182.845 0.754249 -190.773 -0.133631 -199.11 -1.90942C-212.908 -4.85139 -227.573 -10.1655 -243.922 -18.1698C-274.286 -33.0387 -306.045 -55.1963 -336.77 -76.625C-361.78 -94.0781 -387.657 -112.114 -412.655 -126.148C-440.698 -141.892 -464.637 -150.797 -485.858 -153.395L-485.846 -153.726C-460.09 -153.726 -433.66 -148.173 -405.04 -136.75C-379.128 -126.4 -353.744 -112.141 -330.165 -98.2657C-319.013 -91.7059 -305.792 -81.4355 -291.801 -70.5688C-258.538 -44.7403 -220.848 -15.4664 -190.749 -18.7661C-151.892 -23.0068 -131.645 -57.2901 -110.207 -93.5744C-97.9005 -114.394 -85.1848 -135.928 -68.3547 -152.666C-49.3231 -171.59 -27.5125 -181.582 -1.684 -183.225C26.9957 -185.041 57.7446 -181.648 92.331 -172.835C123.164 -164.977 154.13 -153.646 184.084 -142.687C214.087 -131.701 245.125 -120.357 276.042 -112.485C310.713 -103.659 341.57 -100.253 370.37 -102.069C416.975 -105.011 454.749 -132.761 491.296 -159.596C510.809 -173.922 529.239 -187.466 548.945 -197.511C571.272 -208.894 591.254 -213.731 611.802 -212.698C630.665 -211.757 649.564 -205.383 669.582 -193.23C687.435 -182.403 704.517 -168.065 721.035 -154.216C738.13 -139.877 755.802 -125.048 774.364 -114.062C795.176 -101.751 814.917 -95.6681 834.719 -95.4958C834.972 -95.4958 835.212 -95.4958 835.465 -95.4958C862.701 -95.4958 890.803 -108.536 917.979 -121.139C934.388 -128.759 951.363 -136.63 967.495 -141.202C1035.68 -160.537 1098.89 -164.672 1155.33 -153.487C1202.84 -144.065 1246.99 -118.594 1289.68 -93.9452C1317.22 -78.0559 1345.7 -61.61 1374.62 -49.8024C1407.03 -36.5635 1436.68 -30.6265 1465.26 -31.6469C1513.99 -33.383 1557.27 -58.88 1599.12 -83.5555C1630.21 -101.87 1659.56 -119.177 1691.07 -127.632C1708.01 -132.178 1723.92 -133.688 1739.71 -132.257C1757.38 -130.654 1774.48 -125.419 1791.98 -116.262L1792.96 -115.745L1791.88 -115.957C1763.96 -121.258 1735.42 -118.462 1704.64 -107.409C1677.15 -97.5498 1650.31 -82.0978 1624.36 -67.1626C1588.03 -46.264 1550.47 -24.6498 1509.63 -17.1756C1487.46 -13.1204 1465.95 -12.3121 1443.85 -14.7107C1424.14 -16.8575 1404.42 -21.5223 1383.54 -28.97C1344.73 -42.8317 1307.51 -64.605 1271.53 -85.6627C1233.73 -107.78 1194.65 -130.64 1152.83 -145.072C1087.09 -167.76 1034.06 -136.087 982.761 -105.448C961.877 -92.9647 940.271 -80.0703 918.448 -71.4034C894.015 -61.7029 871.651 -58.3501 850.093 -61.1595C831.146 -63.6244 811.465 -71.801 789.943 -86.1531C770.731 -98.9546 751.748 -115.454 733.402 -131.409C708.62 -152.944 682.972 -175.247 655.808 -189.4C641.179 -197.02 627.333 -201.725 613.486 -203.766C597.919 -206.058 582.761 -204.945 567.134 -200.387C529.071 -189.281 501.414 -162.923 474.683 -137.439C457.263 -120.834 439.254 -103.672 418.502 -90.8179C395.212 -76.3863 370.887 -69.0579 344.132 -68.3953C290.406 -67.0701 242.442 -92.766 196.066 -117.614C173.847 -129.514 150.869 -141.825 127.832 -150.757C102.051 -160.763 78.7491 -165.441 56.5897 -165.096C-5.56971 -164.116 -37.2569 -120.132 -67.8975 -77.6056C-93.1487 -42.567 -116.992 -9.47639 -156.21 -1.19381C-162.382 0.1049 -168.698 0.754252 -175.23 0.75425ZM-483.2 -153.368C-462.592 -150.373 -439.434 -141.547 -412.523 -126.44C-387.501 -112.393 -361.636 -94.3431 -336.613 -76.89C-305.901 -55.4746 -274.153 -33.3303 -243.801 -18.4614C-227.477 -10.4703 -212.836 -5.1562 -199.049 -2.22747C-183.591 1.05906 -169.6 1.29759 -156.258 -1.5251C-117.149 -9.76793 -93.3412 -42.8187 -68.1261 -77.8044C-37.4494 -120.397 -5.71409 -164.447 56.5776 -165.427C78.7611 -165.785 102.099 -161.081 127.916 -151.062C150.966 -142.117 173.955 -129.806 196.187 -117.905C242.539 -93.084 290.454 -67.4146 344.12 -68.7266C370.827 -69.3892 395.104 -76.7044 418.346 -91.1094C439.074 -103.951 457.071 -121.112 474.478 -137.691C501.245 -163.201 528.927 -189.586 567.05 -200.718C582.713 -205.29 597.919 -206.39 613.522 -204.097C627.405 -202.056 641.275 -197.352 655.928 -189.705C683.116 -175.525 708.788 -153.222 733.606 -131.648C751.952 -115.705 770.923 -99.2064 790.123 -86.4181C811.609 -72.0926 831.254 -63.9292 850.154 -61.4643C871.675 -58.6549 893.979 -62.0077 918.376 -71.695C940.175 -80.3619 961.769 -93.2562 982.653 -105.726C1034 -136.392 1087.09 -168.104 1152.95 -145.377C1194.79 -130.932 1233.89 -108.059 1271.7 -85.941C1307.68 -64.8966 1344.88 -43.1233 1383.66 -29.2748C1404.52 -21.8271 1424.23 -17.1624 1443.91 -15.0288C1465.97 -12.6301 1487.46 -13.4385 1509.61 -17.4804C1550.4 -24.9413 1587.95 -46.5423 1624.25 -67.4409C1650.21 -82.3761 1677.06 -97.8281 1704.58 -107.701C1735 -118.621 1763.25 -121.483 1790.88 -116.461C1773.76 -125.286 1757.02 -130.336 1739.71 -131.913C1723.96 -133.344 1708.08 -131.833 1691.16 -127.288C1659.69 -118.846 1630.35 -101.552 1599.29 -83.2507C1557.41 -58.562 1514.09 -33.0384 1465.3 -31.3024C1436.67 -30.282 1406.98 -36.2322 1374.53 -49.4843C1345.59 -61.3052 1317.11 -77.7511 1289.56 -93.6404C1246.89 -118.276 1202.77 -143.747 1155.3 -153.156C1098.89 -164.341 1035.73 -160.206 967.579 -140.871C951.459 -136.299 934.496 -128.427 918.099 -120.821C890.647 -108.085 862.268 -94.8995 834.719 -95.1513C814.869 -95.3235 795.08 -101.406 774.22 -113.757C755.633 -124.757 737.949 -139.586 720.854 -153.938C704.349 -167.786 687.278 -182.112 669.438 -192.926C649.48 -205.051 630.617 -211.399 611.802 -212.353C591.302 -213.387 571.369 -208.563 549.089 -197.206C529.408 -187.174 510.99 -173.644 491.489 -159.318C454.917 -132.456 417.107 -104.68 370.418 -101.738C341.594 -99.9221 310.701 -103.328 276.006 -112.167C245.065 -120.039 214.039 -131.396 184.024 -142.382C154.081 -153.342 123.116 -164.672 92.2949 -172.517C57.7446 -181.317 27.0198 -184.709 -1.63587 -182.894C-27.4043 -181.264 -49.1547 -171.298 -68.1261 -152.427C-84.9321 -135.716 -97.6479 -114.195 -109.931 -93.3889C-131.404 -57.0251 -151.699 -22.6888 -190.701 -18.4348C-192.276 -18.2626 -193.876 -18.183 -195.477 -18.183C-224.83 -18.183 -260.379 -45.7873 -291.958 -70.3037C-305.949 -81.1705 -319.158 -91.4276 -330.298 -97.9742C-353.864 -111.836 -379.248 -126.095 -405.137 -136.432C-432.746 -147.458 -458.322 -153.01 -483.2 -153.368Z" fill="url(#paint0_linear_1_33)"/>
<path d="M-181.534 25.6416C-205.522 25.6416 -233.685 18.512 -266.611 4.17315C-312.578 -15.8376 -360.494 -46.609 -402.755 -73.7627C-431.423 -92.1699 -458.491 -109.57 -479.868 -120.158L-481.228 -120.834L-479.784 -120.476C-447.459 -112.499 -405.282 -86.4317 -360.626 -58.8408C-319.279 -33.2907 -276.524 -6.8659 -236.8 8.45358C-215.303 16.7362 -196.885 20.9504 -180.488 21.3214C-162.202 21.7455 -146.407 17.1603 -133.51 7.69824C-115.982 -5.15632 -104.506 -26.4392 -93.39 -47.0331C-85.0531 -62.4851 -76.4396 -78.4539 -65.384 -90.5663C-42.9118 -115.176 -18.3824 -130.376 9.59954 -137.042C34.2853 -142.912 61.774 -142.369 96.1078 -135.332C120.769 -130.283 145.034 -122.822 168.782 -114.818C191.663 -109.928 214.231 -103.262 236.391 -96.702C284.198 -82.5752 333.63 -67.9581 384.878 -71.5229C396.09 -72.3048 406.784 -74.2661 417.094 -77.1021C450.442 -88.87 476.727 -113.837 502.279 -138.115C530.081 -164.54 556.342 -189.48 589.618 -195.841C632.096 -203.965 672.818 -171.007 715.921 -136.114C746.261 -111.558 777.323 -86.405 810.73 -74.0408C837.882 -67.4544 864.168 -66.4605 892.775 -70.8735C915.837 -74.4383 939.2 -79.8717 963.933 -85.6363C979.729 -89.3204 995.717 -93.0443 1011.74 -96.2646C1036.31 -102.427 1061.23 -107.94 1085.79 -110.564C1123.34 -114.579 1156.22 -111.292 1186.3 -100.518C1221.85 -87.7831 1254.95 -69.588 1286.97 -52.0024C1321.27 -33.1578 1353.68 -15.347 1388.75 -3.73809C1407.59 2.49041 1425.38 6.32029 1443.14 7.9503C1463.01 9.7791 1482.39 8.8382 1502.38 5.07461C1534.07 -0.888854 1570.51 -22.7416 1609.08 -45.8798C1643.69 -66.6327 1679.47 -88.1011 1713.53 -98.7823C1731.93 -104.547 1748.11 -106.681 1763.01 -105.289C1779.81 -103.712 1794.48 -97.7487 1807.84 -87.0277L1808.35 -86.6169L1807.72 -86.7229C1779.32 -91.7057 1749.76 -88.5782 1717.35 -77.1814C1688.42 -67.0037 1659.85 -51.2734 1632.2 -36.06C1593.67 -14.8566 1553.83 7.07567 1511.71 14.8944C1462.07 24.1179 1410.77 16.5509 1361.14 9.23575C1351.76 7.85753 1342.05 6.42628 1332.58 5.14082C1275.99 -2.50567 1263.83 -13.7302 1231.31 -43.7331C1225.12 -49.4447 1218.1 -55.925 1209.92 -63.1739C1192.88 -78.2681 1174.44 -88.9891 1153.55 -95.9597C1135.01 -102.148 1115.01 -105.21 1092.38 -105.289C1092.04 -105.289 1091.69 -105.289 1091.36 -105.289C1065.33 -105.289 1038.53 -101.314 1011.8 -95.9465C1002.85 -93.7069 993.948 -91.3745 985.13 -89.0554C941.714 -77.6851 896.83 -65.9172 852.186 -65.8642C852.138 -65.8642 852.09 -65.8642 852.042 -65.8642C837.798 -65.8642 824.024 -68.7664 810.634 -73.736C808.084 -74.3588 805.533 -75.0214 802.971 -75.737C776.288 -83.198 751.903 -95.0321 726.087 -107.555C700.03 -120.198 673.094 -133.265 641.419 -143.005C614.953 -151.142 590.027 -151.248 562.947 -143.363C539.019 -136.392 517.136 -124.293 493.966 -111.491C469.714 -98.0934 444.872 -84.3642 417.191 -76.784C410.694 -74.4914 403.933 -72.7024 396.86 -71.5097C365.04 -66.1691 331.657 -67.3353 294.809 -75.0878C261.906 -82.0054 229.172 -93.4685 197.509 -104.534C188.005 -107.86 178.406 -111.213 168.721 -114.486C148.318 -118.846 127.663 -121.802 106.791 -121.987C81.3108 -122.226 56.577 -119.138 33.2988 -112.817C8.61305 -106.111 -14.4125 -95.7744 -35.1403 -82.0717C-53.3298 -70.052 -68.2832 -52.3869 -82.7313 -35.3049C-100.223 -14.6448 -118.304 6.73082 -141.967 17.5843C-153.661 22.9514 -166.81 25.6416 -181.534 25.6416ZM-478.376 -119.774C-457.216 -109.119 -430.677 -92.0771 -402.611 -74.0542C-360.349 -46.9006 -312.446 -16.1424 -266.503 3.86835C-213.45 26.9668 -172.764 31.3533 -142.088 17.2795C-118.485 6.45253 -100.428 -14.8834 -82.9599 -35.5302C-68.4877 -52.6255 -53.5223 -70.3038 -35.2967 -82.35C-14.5448 -96.066 8.5168 -106.429 33.2266 -113.135C56.5289 -119.469 81.2747 -122.557 106.791 -122.318C126.736 -122.133 146.502 -119.429 166.015 -115.388C143.133 -123.047 119.771 -130.137 96.0477 -135.001C61.7499 -142.038 34.2973 -142.581 9.65969 -136.71C-18.2742 -130.058 -42.7554 -114.897 -65.1794 -90.3278C-76.211 -78.2418 -84.8125 -62.2863 -93.1374 -46.8608C-104.265 -26.2405 -115.766 -4.90455 -133.342 7.97652C-146.298 17.4783 -162.166 22.0768 -180.5 21.6527C-196.921 21.2817 -215.375 17.0542 -236.897 8.75839C-276.644 -6.56108 -319.411 -32.9991 -360.77 -58.5625C-404.728 -85.7161 -446.28 -111.399 -478.376 -119.774ZM1091.34 -105.621C1091.69 -105.621 1092.03 -105.621 1092.37 -105.621C1115.02 -105.528 1135.05 -102.467 1153.62 -96.2645C1174.54 -89.2806 1193.02 -78.5332 1210.09 -63.4257C1218.29 -56.1768 1225.3 -49.6965 1231.49 -43.9848C1263.95 -14.0218 1276.1 -2.82371 1332.61 4.82278C1342.07 6.10824 1351.78 7.53947 1361.17 8.9177C1410.77 16.2329 1462.06 23.7866 1511.65 14.5764C1553.72 6.75763 1593.55 -15.1614 1632.06 -36.3516C1659.7 -51.565 1688.3 -67.3085 1717.24 -77.4862C1749.45 -88.8167 1778.86 -91.984 1807.13 -87.1469C1793.95 -97.5764 1779.5 -103.394 1762.96 -104.945C1748.1 -106.336 1731.96 -104.216 1713.59 -98.451C1679.57 -87.7831 1643.8 -66.3279 1609.21 -45.575C1570.62 -22.4236 1534.17 -0.557555 1502.42 5.41915C1482.42 9.18276 1463.01 10.1236 1443.1 8.29486C1425.32 6.66484 1407.52 2.83497 1388.66 -3.40679C1353.56 -15.0157 1321.15 -32.8265 1286.82 -51.6843C1254.82 -69.2699 1221.73 -87.4519 1186.19 -100.187C1156.15 -110.948 1123.31 -114.234 1085.8 -110.219C1063.43 -107.834 1040.77 -103.036 1018.33 -97.55C1042.9 -102.281 1067.45 -105.621 1091.34 -105.621ZM813.497 -73.0468C825.984 -68.7001 838.809 -66.1822 852.042 -66.1822C852.09 -66.1822 852.138 -66.1822 852.186 -66.1822C896.794 -66.2485 941.666 -78.0031 985.058 -89.3734C991.567 -91.083 998.123 -92.7925 1004.7 -94.4755C991.073 -91.6131 977.467 -88.4458 964.006 -85.3183C939.26 -79.5536 915.897 -74.107 892.824 -70.5422C865.166 -66.275 839.687 -67.0569 813.497 -73.0468ZM171.596 -113.85C180.342 -110.882 189.016 -107.847 197.606 -104.839C229.257 -93.76 261.991 -82.3234 294.869 -75.3926C331.693 -67.6401 365.04 -66.4739 396.812 -71.8145C402.153 -72.7156 407.302 -73.9481 412.306 -75.4853C403.488 -73.3385 394.382 -71.8277 384.914 -71.1651C333.606 -67.6003 284.15 -82.2174 236.33 -96.3442C215.097 -102.652 193.491 -109.027 171.596 -113.85ZM601.852 -149.512C615.001 -149.512 628.054 -147.444 641.503 -143.31C673.203 -133.569 700.15 -120.49 726.207 -107.847C752.012 -95.3237 776.385 -83.5028 803.043 -76.0418C804.715 -75.578 806.375 -75.1274 808.036 -74.7034C775.578 -87.3989 745.311 -111.902 715.741 -135.835C672.697 -170.689 632.024 -203.594 589.666 -195.497C556.475 -189.149 530.249 -164.222 502.472 -137.837C477.93 -114.513 452.727 -90.5662 421.209 -78.255C447.218 -86.0207 470.785 -99.0476 493.81 -111.77C516.992 -124.584 538.899 -136.684 562.851 -143.668C576.24 -147.564 589.088 -149.512 601.852 -149.512Z" fill="url(#paint1_linear_1_33)"/>
<path d="M-193.697 60.7995C-193.793 60.7995 -193.877 60.7995 -193.961 60.7995C-219.958 60.7465 -247.627 52.7819 -278.557 36.4421C-306.106 21.8912 -333.57 2.22503 -360.121 -16.7918C-396.608 -42.9117 -434.322 -69.9329 -472.301 -83.5693L-473.384 -83.9536L-472.253 -83.8874C-419.766 -80.9454 -374.99 -50.6112 -331.694 -21.271C-310.725 -7.06471 -289.059 7.61864 -267.008 18.7637C-242.334 31.234 -219.645 37.913 -197.666 39.1852C-171.97 40.6695 -145.516 34.388 -116.788 19.9697C-91.0921 7.07535 -65.7567 -11.1198 -41.2514 -28.7054C5.47335 -62.3128 53.7982 -97.0069 110.219 -100.558C157.967 -103.567 204.331 -87.3858 249.167 -71.735C289.576 -57.6348 331.356 -43.0441 374.34 -42.302C414.087 -41.6129 452.667 -54.3482 489.985 -66.6727C536.673 -82.0849 584.95 -98.0272 636.367 -88.1809C665.335 -82.6282 690.165 -75.6973 712.072 -69.5749C768.734 -53.7518 813.498 -41.2418 890.935 -60.8814C952.71 -76.5454 1010.17 -80.044 1066.56 -71.5759C1119.45 -63.6378 1172.84 -45.3631 1234.6 -14.0748C1349.18 43.9828 1457.34 48.25 1585.29 -0.266051C1603.69 -7.23667 1623.3 -17.9974 1644.08 -29.381C1673.15 -45.3233 1703.22 -61.8089 1733.27 -69.7205C1767.42 -78.7186 1796.05 -74.796 1820.82 -57.767L1821.3 -57.4357L1820.74 -57.4622C1790.66 -58.6947 1759.21 -53.9636 1724.56 -43.0306C1693.64 -33.2638 1663.01 -19.5479 1633.4 -6.26925C1591.07 12.6945 1547.31 32.3077 1501.38 41.0541C1440.5 52.6364 1375.58 55.6579 1318.53 49.5487C1285.09 45.9706 1254.42 39.2915 1227.39 29.7102C1197.4 19.082 1171.69 4.7697 1151 -12.8026C1112.85 -45.1776 1075.39 -61.385 1033.13 -63.8101C994.514 -66.01 955.5 -56.919 910.34 -46.3836C897.106 -43.2958 883.416 -40.1021 869.137 -37.0673C814.833 -25.5115 765.485 -39.0552 717.774 -52.1748C675.091 -63.9029 630.941 -76.0287 584.252 -69.4291C555.019 -65.2944 529.624 -57.595 505.07 -50.1605C459.416 -36.3253 416.288 -23.2587 358.267 -37.1469C330.562 -43.7863 303.278 -52.8507 276.884 -61.6369C238.063 -74.5577 201.383 -86.7497 163.272 -91.9445C142.797 -94.7275 123.885 -95.2046 105.455 -93.4023C84.8238 -91.3217 65.2869 -86.4979 45.714 -78.5997C10.4538 -64.3801 -19.6214 -38.4325 -48.6981 -13.3329C-69.9071 4.96826 -91.8259 23.8791 -115.333 37.7673C-141.57 53.259 -167.218 60.7995 -193.697 60.7995ZM-471.134 -83.503C-433.492 -69.7341 -396.127 -42.9648 -359.976 -17.0833C-333.426 1.93349 -305.973 21.5864 -278.448 36.1372C-247.555 52.4639 -219.922 60.4152 -193.973 60.4682C-193.889 60.4682 -193.793 60.4682 -193.709 60.4682C-167.267 60.4682 -141.679 52.941 -115.489 37.4757C-92.0063 23.614 -70.0996 4.70321 -48.9026 -13.598C-19.8018 -38.7108 10.2974 -64.6849 45.5937 -78.9177C65.1907 -86.8292 84.7636 -91.653 105.419 -93.6806C123.861 -95.4961 142.797 -95.019 163.296 -92.2228C197.546 -87.5581 230.628 -77.2347 265.155 -65.8246C259.765 -67.6666 254.412 -69.5484 249.07 -71.4037C204.258 -87.0413 157.906 -103.222 110.231 -100.214C53.8944 -96.6623 5.60574 -61.9947 -41.1071 -28.4536C-65.6244 -10.8548 -90.9597 7.3404 -116.68 20.248C-145.456 34.6928 -171.958 40.9875 -197.703 39.5033C-219.73 38.2311 -242.442 31.5388 -267.152 19.0552C-289.215 7.91019 -310.894 -6.78643 -331.862 -20.9927C-374.809 -50.1077 -419.212 -80.2033 -471.134 -83.503ZM1021.27 -64.4462C1025.24 -64.4462 1029.2 -64.3402 1033.14 -64.1149C1075.48 -61.6898 1112.99 -45.4692 1151.18 -13.0412C1171.86 4.50464 1197.53 18.7905 1227.49 29.4187C1254.5 39 1285.14 45.6658 1318.57 49.2439C1375.58 55.3531 1440.48 52.3317 1501.33 40.7493C1547.22 32.0162 1590.98 12.403 1633.27 -6.5608C1662.89 -19.8394 1693.53 -33.5686 1724.46 -43.3355C1758.93 -54.2155 1790.24 -58.9464 1820.17 -57.8068C1795.58 -74.5177 1767.17 -78.3078 1733.33 -69.3891C1703.33 -61.4909 1673.27 -45.0185 1644.21 -29.0762C1623.43 -17.6926 1603.81 -6.93186 1585.38 0.052011C1526.81 22.2626 1472.36 33.4076 1419.57 33.4076C1356.97 33.4076 1296.69 17.7303 1234.48 -13.7833C1172.74 -45.0583 1119.37 -63.333 1066.53 -71.2578C1010.15 -79.7127 952.746 -76.2141 891.007 -60.5634C813.498 -40.9105 768.709 -53.4205 712 -69.2568C690.093 -75.3793 665.275 -82.3102 636.318 -87.8628C584.974 -97.6959 536.721 -81.7668 490.069 -66.3679C452.728 -54.0434 414.111 -41.2816 374.328 -41.984C344.132 -42.5141 314.538 -49.8557 285.606 -59.0527C309.281 -51.2075 333.63 -43.3489 358.315 -37.4385C416.276 -23.5635 459.356 -36.6168 504.974 -50.4521C529.54 -57.8998 554.947 -65.5992 584.204 -69.7339C630.953 -76.3467 675.128 -64.2077 717.834 -52.4796C765.522 -39.3732 814.821 -25.8295 869.064 -37.3854C883.332 -40.4201 897.022 -43.6139 910.255 -46.7016C950.845 -56.1371 986.442 -64.4462 1021.27 -64.4462Z" fill="url(#paint2_linear_1_33)"/>
<path d="M1193.29 92.1543C1178.59 92.1543 1163.85 88.828 1148.81 80.0286C1127.31 67.4391 1111.09 47.7596 1093.89 26.914C1074.82 3.77581 1055.07 -20.1576 1027.26 -34.0326C999.976 -47.6425 972.595 -53.8445 946.37 -56.0576C934.232 -53.2217 922.406 -50.1074 911.254 -47.1655C906.117 -45.8137 901.281 -44.5283 896.517 -43.3091C841.949 -29.3016 789.582 -32.7206 738.935 -36.0072C702.773 -38.3661 665.624 -40.778 627.38 -36.9349C606.941 -32.8665 587.044 -27.4198 567.964 -20.0119C540.596 -9.39693 517.233 7.59231 494.629 24.025C473.119 39.6625 452.8 54.4253 431.242 61.9393C407.074 70.3544 384.662 68.4859 360.71 56.0421C338.081 44.2874 316.968 31.2606 296.553 18.6578C263.615 -1.67096 232.493 -20.8601 198.34 -32.946C159.988 -46.5162 123.417 -49.0871 83.2361 -41.0564C34.8872 -31.3823 -0.34889 -2.79746 -34.4181 24.8332C-55.2421 41.7297 -76.776 59.196 -100.8 71.7325C-127.699 85.7665 -155.14 92.1276 -184.71 91.1602C-234.947 89.5301 -293.799 76.2117 -342.135 55.5516C-384.373 37.5022 -440.205 4.74293 -466.358 -48.7559L-466.49 -49.021L-466.214 -48.9945C-441.744 -46.7549 -417.492 -39.4397 -392.06 -26.6249C-369.383 -15.2015 -347.862 -0.571154 -327.038 13.5954C-286.003 41.5044 -243.573 70.3808 -189.907 76.331C-152.517 80.4789 -122.502 75.5491 -95.4346 60.826C-71.3744 47.7329 -52.8602 28.6764 -33.2511 8.49335C-6.4 -19.1506 21.3774 -47.7354 66.5263 -64.2343C107.97 -79.3815 154.695 -80.5212 209.371 -67.7329C255.374 -56.9721 298.983 -38.6842 347.152 -17.653C380.788 -2.96967 410.707 3.21909 441.323 1.81437C469.341 0.528911 495.531 -6.78627 525.847 -15.2544C546.935 -21.1383 570.851 -27.8174 598.123 -33.0255C607.928 -34.894 617.672 -36.2722 627.332 -37.2396C677.931 -47.3113 731.741 -48.8485 784.277 -50.3725C817.492 -51.3266 848.854 -52.2278 879.459 -55.1432C900.271 -57.1178 922.863 -58.3502 946.358 -56.3757C984.084 -65.1751 1024.82 -71.2048 1058.02 -60.6163C1095.11 -48.7954 1106.32 -25.3259 1118.2 -0.478132C1126.46 16.8292 1135.01 34.7195 1152.69 50.4896C1167.54 63.755 1185.07 69.5859 1206.24 68.3402C1225.14 67.2138 1245.14 60.6805 1264.47 54.3592C1278.86 49.6547 1293.74 44.7912 1308.05 42.1938C1338.73 36.6411 1370.15 35.581 1400.55 34.5738C1433.56 33.4739 1467.69 32.321 1500.93 25.4034C1527.64 19.8507 1559.36 6.78411 1592.94 -7.03787C1674.41 -40.579 1766.75 -78.5994 1830.04 -28.5328L1830.35 -28.281L1829.97 -28.228C1770.45 -19.9454 1712.17 -2.69113 1655.8 13.9933C1602 29.9224 1546.36 46.3815 1489.73 55.0351C1459.61 59.6336 1428.97 59.3686 1399.33 59.1168C1371.5 58.8782 1342.71 58.6264 1314.6 62.443C1295.7 65.0007 1277.31 71.2159 1259.51 77.2192C1236.97 84.7994 1215.17 92.1543 1193.29 92.1543ZM947.429 -56.2962C973.377 -54.0035 1000.42 -47.7883 1027.39 -34.3374C1055.27 -20.4359 1075.02 3.52401 1094.12 26.6887C1111.29 47.5079 1127.51 67.174 1148.96 79.7238C1186.24 101.55 1221.79 89.5569 1259.42 76.8481C1277.22 70.8449 1295.63 64.6297 1314.56 62.0587C1342.7 58.2421 1371.49 58.4939 1399.33 58.7325C1428.94 58.9842 1459.59 59.2493 1489.68 54.6508C1546.29 46.0104 1601.91 29.5513 1655.71 13.6222C1711.98 -3.03568 1770.14 -20.2502 1829.55 -28.546C1766.4 -78.1488 1674.31 -40.2344 1593.05 -6.77281C1559.45 7.06241 1527.72 20.129 1500.98 25.6949C1467.72 32.6125 1433.58 33.7654 1400.55 34.8654C1370.17 35.8858 1338.74 36.9327 1308.09 42.4853C1293.8 45.0695 1278.93 49.933 1264.55 54.6375C1245.2 60.9588 1225.19 67.5053 1206.26 68.6318C1185 69.8907 1167.41 64.0333 1152.49 50.7149C1134.77 34.9051 1126.21 16.9749 1117.93 -0.345617C1106.09 -25.1271 1094.91 -48.5436 1057.95 -60.3115C1025.09 -70.7807 984.83 -64.9498 947.429 -56.2962ZM-465.961 -48.6367C-451.477 -19.1639 -418.226 22.6731 -342.027 55.2468C-293.714 75.8937 -234.899 89.1988 -184.698 90.8421C-155.176 91.8095 -127.783 85.4617 -100.932 71.441C-76.9323 58.9177 -55.4106 41.4514 -34.5985 24.5682C-0.505292 -3.089 34.7669 -31.6871 83.1759 -41.3612C123.404 -49.4052 160.036 -46.821 198.436 -33.2376C232.614 -21.1516 263.747 -1.93602 296.698 18.3928C317.113 30.9823 338.226 44.0092 360.842 55.7638C384.722 68.1678 407.062 70.0363 431.146 61.6478C452.656 54.1603 472.962 39.3974 494.448 23.7732C517.065 7.32726 540.451 -9.67522 567.856 -20.3034C585.889 -27.3006 604.656 -32.5616 623.904 -36.5505C615.375 -35.6096 606.797 -34.3507 598.172 -32.6942C570.911 -27.4861 547.008 -20.807 525.919 -14.9231C495.579 -6.45496 469.377 0.860218 441.335 2.14567C410.683 3.55039 380.716 -2.63836 347.044 -17.335C298.899 -38.3529 255.302 -56.6408 209.311 -67.4016C154.695 -80.1899 108.018 -79.0502 66.6226 -63.9163C21.5338 -47.4439 -6.20753 -18.8723 -33.0466 8.74515C-52.6677 28.9414 -71.194 48.0112 -95.3023 61.1308C-122.418 75.8804 -152.493 80.8235 -189.931 76.6623C-243.669 70.6988 -286.123 41.8092 -327.194 13.8869C-348.006 -0.266352 -369.516 -14.91 -392.18 -26.3201C-417.492 -39.0686 -441.624 -46.3573 -465.961 -48.6367ZM670.508 -39.2805C693.726 -39.2805 716.523 -37.7962 738.947 -36.3385C789.57 -33.0387 841.913 -29.6329 896.445 -43.6271C901.209 -44.8463 906.057 -46.1318 911.182 -47.4835C922.033 -50.346 933.51 -53.3674 945.299 -56.1371C922.19 -57.9924 899.982 -56.7732 879.483 -54.8252C848.878 -51.9097 817.504 -51.0086 784.289 -50.0544C732.92 -48.5702 680.337 -47.0595 630.749 -37.5842C644.126 -38.8034 657.384 -39.2805 670.508 -39.2805Z" fill="url(#paint3_linear_1_33)"/>
<path d="M1176.31 150.239C1158.05 150.239 1139.99 144.938 1120.11 133.833C1091.87 118.062 1074.75 90.7764 1058.19 64.3781C1044.96 43.294 1031.27 21.481 1012.07 6.00247C995.501 -7.34243 977.359 -15.0154 954.959 -18.1297C935.17 -20.8861 915.2 -19.6934 894.051 -18.4345C889.467 -18.1562 884.728 -17.8779 880.048 -17.6394C862.653 -16.7647 844.992 -16.1816 827.91 -15.6118C784.782 -14.1673 740.186 -12.6831 697.143 -6.52084C648.938 0.383507 607.555 12.5755 570.598 30.7706C542.905 44.4071 519.687 59.7265 499.2 73.2437C470.051 92.4725 444.884 109.091 416.758 114.683C401.913 117.638 387.056 117.36 371.32 113.848C354.201 110.018 336.036 102.385 315.789 90.4979C261.245 58.494 212.475 38.5363 166.701 29.5116C139.657 24.171 113.371 22.7132 88.5532 25.1516C61.4495 27.8153 35.2239 35.2365 10.5983 47.1899C-7.36259 55.9098 -23.4708 64.4707 -39.0498 72.7533C-70.7611 89.61 -98.1415 104.161 -128.758 113.451C-162.286 123.628 -196.319 126.212 -235.886 121.587C-269.642 117.638 -319.254 109.713 -360.096 86.6812C-383.615 73.4158 -400.987 53.3123 -417.781 33.8847C-431.94 17.4918 -446.581 0.542327 -464.806 -12.1267L-465.275 -12.4447L-464.722 -12.4315C-443.333 -11.8219 -421.305 -5.2091 -397.378 7.79125C-375.988 19.4134 -354.887 35.0906 -334.472 50.2378C-293.594 80.5852 -251.321 111.966 -201.095 116.724C-183.519 118.394 -167.134 117.559 -151.002 114.206C-136.59 111.198 -122.683 106.215 -108.499 98.9792C-82.0814 85.5018 -59.3807 66.644 -35.3566 46.6996C-5.73853 22.1036 24.89 -3.31396 63.29 -18.0636C109.594 -35.8347 160.445 -32.7602 223.314 -8.34973C250.43 2.17247 274.959 24.118 298.683 45.3347C321.853 66.061 343.747 85.6344 366.833 93.97C385.191 100.596 404.114 98.8468 426.394 88.4439C446.075 79.2601 465.263 64.8286 485.582 49.5489C511.759 29.8562 538.827 9.50095 566.977 1.44365C611.982 -11.4374 664.144 -20.7139 721.997 -26.1075C769.299 -30.5205 820.631 -32.4685 878.929 -32.0842C931.922 -31.7396 975.892 -29.5133 1019.1 -4.90405C1040.67 7.38068 1059.16 26.6095 1077.06 45.2023C1097.28 66.2202 1118.18 87.9404 1143.42 99.4167C1187.37 119.388 1221.29 106.772 1260.58 92.1678C1270.5 88.4838 1280.75 84.6672 1291.58 81.2216C1328.34 69.52 1366.77 65.1733 1403.95 60.9591C1431.01 57.8979 1459.01 54.7174 1486.26 48.7407C1505.12 44.606 1532.35 33.9248 1563.9 21.5473C1657.48 -15.1478 1785.65 -65.3999 1831.4 1.98722L1831.57 2.23899L1831.28 2.25226C1756.64 5.7508 1685.11 28.1336 1615.94 49.7744C1573.16 63.159 1528.91 76.9942 1484.04 86.4032C1455.49 92.3932 1426.49 95.7857 1398.45 99.0722C1356.34 104.002 1312.81 109.104 1270.83 123.098C1260.46 126.557 1250.97 130.162 1241.8 133.647C1220.93 141.572 1202.9 148.423 1183.8 149.934C1181.32 150.133 1178.81 150.239 1176.31 150.239ZM928.204 -20.1307C937.239 -20.1307 946.141 -19.6802 955.007 -18.4477C977.455 -15.3202 995.645 -7.63398 1012.26 5.75067C1031.49 21.2557 1045.2 43.0819 1058.44 64.2058C1074.98 90.5643 1092.09 117.824 1120.25 133.554C1142.81 146.157 1163.01 151.259 1183.81 149.629C1202.88 148.132 1220.88 141.293 1241.74 133.369C1250.92 129.883 1260.4 126.279 1270.78 122.82C1312.78 108.826 1356.33 103.724 1398.45 98.7807C1426.49 95.4942 1455.47 92.1016 1484.02 86.1117C1528.88 76.7027 1573.11 62.8675 1615.89 49.4828C1684.99 27.8686 1756.45 5.51227 1831.01 1.96071C1785.24 -64.8433 1657.4 -14.7238 1564.03 21.8919C1532.48 34.2693 1505.23 44.9505 1486.34 49.0985C1459.08 55.0752 1431.07 58.2557 1404.01 61.3169C1366.84 65.5311 1328.41 69.8778 1291.69 81.5794C1280.85 85.025 1270.6 88.8416 1260.7 92.5257C1221.37 107.156 1187.38 119.785 1143.34 99.7613C1118.05 88.2717 1097.13 66.5249 1076.9 45.4806C1059.02 26.9011 1040.53 7.68548 1019.01 -4.57274C975.856 -29.1422 931.922 -31.3686 878.965 -31.7264C820.68 -32.1239 769.359 -30.1626 722.057 -25.7497C664.216 -20.3561 612.078 -11.0929 567.086 1.7882C538.983 9.83224 511.94 30.1743 485.786 49.8537C465.455 65.1466 446.255 79.5782 426.55 88.7884C415.952 93.7315 406.231 96.6734 396.86 97.7469C386.346 98.9528 376.517 97.8396 366.773 94.3145C343.639 85.9525 321.732 66.3658 298.526 45.613C274.827 24.4095 250.31 2.49052 223.242 -8.01842C160.445 -32.3891 109.654 -35.4769 63.4224 -17.7323C25.0705 -3.00916 -5.53401 22.4084 -35.14 46.9779C-59.1882 66.9356 -81.9009 85.7933 -108.343 99.2973C-122.563 106.546 -136.481 111.542 -150.918 114.55C-167.074 117.916 -183.495 118.751 -201.095 117.082C-251.405 112.324 -293.702 80.9165 -334.617 50.5426C-355.02 35.3955 -376.121 19.7314 -397.486 8.10931C-421.161 -4.75852 -442.972 -11.3581 -464.157 -12.0604C-446.123 0.608593 -431.591 17.4123 -417.54 33.6859C-400.77 53.1003 -383.423 73.1773 -359.94 86.4161C-319.146 109.422 -269.57 117.333 -235.838 121.283C-196.319 125.908 -162.31 123.323 -128.818 113.159C-98.2378 103.869 -70.8573 89.3184 -39.1701 72.475C-23.5791 64.1924 -7.47087 55.6315 10.49 46.9116C35.1517 34.9449 61.4134 27.5105 88.5412 24.8336C113.383 22.3819 139.705 23.8529 166.773 29.1935C212.583 38.2315 261.377 58.1892 315.946 90.2196C336.168 102.094 354.31 109.714 371.392 113.53C387.08 117.042 401.901 117.307 416.71 114.365C444.788 108.786 469.931 92.1942 499.055 72.9786C519.555 59.4482 542.785 44.1288 570.49 30.4791C607.47 12.2707 648.89 0.065449 697.119 -6.8389C740.174 -13.0011 784.782 -14.4986 827.91 -15.9298C844.992 -16.4997 862.653 -17.096 880.048 -17.9574C884.728 -18.1959 889.467 -18.4742 894.051 -18.7525C905.732 -19.4549 917.065 -20.1307 928.204 -20.1307Z" fill="url(#paint4_linear_1_33)"/>
<path d="M1142.66 179.155C1140.25 179.155 1137.84 179.115 1135.43 179.036C1120.12 178.505 1106.53 175.577 1093.88 170.051C1082.59 165.121 1072.3 158.243 1062.42 148.993C1044.07 131.805 1029.86 108.693 1016.11 86.3501C990.28 44.3541 963.573 0.92687 907.429 -9.72785C863.134 -18.1297 803.682 -18.4743 744.301 -10.682C682.021 -2.50548 626.057 13.5959 586.719 34.6535C559.712 49.1116 535.507 70.8318 512.096 91.8497C490.647 111.105 468.475 131.01 444.548 144.805C431.675 152.24 419.296 157.381 406.713 160.535C392.602 164.074 378.587 165.041 363.85 163.504C321.203 159.038 281.552 138.59 243.224 118.831C218.936 106.308 193.829 93.3604 168.024 84.4549C139.068 74.4628 112.361 70.7655 86.4003 73.1509C36.6799 77.7361 -9.25088 97.7998 -53.6659 117.201C-105.852 139.995 -159.795 163.557 -221.702 163.557C-222.436 163.557 -223.182 163.557 -223.916 163.544C-280.289 163.027 -336.493 152.027 -378.105 133.368C-417.311 115.783 -428.968 95.4011 -443.717 69.5992C-451.067 56.7446 -459.392 42.1805 -472.373 26.0924L-472.649 25.7479L-472.228 25.8274C-453.028 29.2067 -433.6 36.3761 -412.836 47.7332C-394.298 57.8711 -376.325 70.3943 -358.941 82.5068C-317.522 111.357 -274.695 141.2 -218.406 143.838C-185.732 145.375 -154.947 140.154 -121.564 127.418C-92.078 116.181 -65.2148 100.901 -36.7637 84.7199C-7.24187 67.9295 23.2784 50.5692 56.8664 38.2447C147.465 4.99515 229.654 52.0932 309.125 97.6408C323.585 105.923 338.527 114.498 353.083 122.277C359.303 125.603 364.969 128.73 369.973 131.474C410.286 153.671 418.671 158.283 455.495 129.539C472.121 116.552 484.355 102.69 496.181 89.2788C516.487 66.2598 535.675 44.5131 574.256 29.7767C617.853 13.132 668.403 -0.37189 720.457 -9.25081C770.996 -17.8779 822.906 -22.1849 870.557 -21.6945C898.671 -21.4162 921.733 -18.3815 943.146 -12.1662C967.026 -5.23537 988.788 5.79041 1009.66 21.5472C1029.21 36.2968 1044.68 58.9182 1059.66 80.7975C1078.74 108.667 1096.75 134.999 1122.59 146.912C1139.78 154.837 1158.89 156.282 1181.02 151.325C1200.53 146.965 1219.72 138.365 1238.28 130.056C1245.61 126.769 1252.52 123.681 1259.4 120.845C1307.42 101.153 1354.92 91.598 1405.22 81.4734C1416.66 79.1676 1428.49 76.7954 1440.25 74.304C1461.41 69.8115 1488.88 61.0121 1520.69 50.808C1622.97 18.009 1763.04 -26.9157 1825.58 33.5803L1825.88 33.8718L1825.47 33.8718C1779.79 33.5405 1730.53 37.3041 1674.88 45.3747C1625.16 52.5838 1574.69 62.5361 1525.88 72.1704C1510.47 75.2052 1494.54 78.3592 1478.8 81.3807C1435.1 89.7825 1389.2 107.607 1340.61 126.491C1273.91 152.386 1205 179.155 1142.66 179.155ZM828.187 -16.6322C857.3 -16.6322 884.451 -14.4456 907.489 -10.0724C963.766 0.608827 990.509 44.0891 1016.37 86.1514C1030.1 108.481 1044.31 131.58 1062.63 148.728C1072.48 157.951 1082.74 164.816 1094 169.733C1106.62 175.232 1120.18 178.161 1135.46 178.691C1199.62 180.891 1271.25 153.061 1340.54 126.146C1389.14 107.262 1435.06 89.4247 1478.77 81.0229C1494.52 78.0014 1510.45 74.8606 1525.86 71.8126C1574.67 62.1783 1625.13 52.226 1674.86 45.0169C1730.37 36.9728 1779.51 33.2092 1825.09 33.514C1802.74 12.0986 1770.53 4.04126 1733.71 4.04126C1667.5 4.04124 1586.38 30.0552 1520.79 51.0996C1488.99 61.3037 1461.51 70.1163 1440.34 74.6088C1428.57 77.1002 1416.75 79.4856 1405.31 81.7782C1355.02 91.8896 1307.53 101.444 1259.54 121.137C1252.66 123.96 1245.74 127.061 1238.41 130.334C1219.84 138.656 1200.64 147.257 1181.1 151.63C1158.92 156.6 1139.74 155.142 1122.49 147.191C1096.58 135.251 1078.53 108.892 1059.44 80.9698C1044.49 59.117 1029.03 36.5221 1009.52 21.799C988.668 6.06871 966.942 -4.94382 943.098 -11.8614C921.709 -18.0634 898.671 -21.0849 870.581 -21.3765C822.93 -21.8536 771.044 -17.5599 720.53 -8.93275C668.488 -0.0538318 617.949 13.4368 574.376 30.0815C535.856 44.7914 516.692 66.5116 496.409 89.5041C484.572 102.928 472.325 116.803 455.675 129.804C418.707 158.667 410.286 154.029 369.841 131.765C364.836 129.009 359.17 125.894 352.951 122.568C338.394 114.776 323.441 106.215 308.981 97.9191C229.558 52.398 147.441 5.33971 56.9506 38.5363C23.3867 50.8608 -7.13359 68.2078 -36.6434 84.9982C-65.0945 101.179 -91.9817 116.472 -121.479 127.723C-154.911 140.472 -185.72 145.693 -218.442 144.156C-274.815 141.505 -317.666 111.648 -359.122 82.7718C-376.493 70.6594 -394.466 58.1493 -412.992 48.0247C-433.588 36.7737 -452.848 29.6307 -471.879 26.2249C-459.043 42.1938 -450.779 56.6519 -443.476 69.4269C-428.752 95.1758 -417.119 115.518 -377.997 133.064C-336.421 151.709 -280.252 162.695 -223.916 163.212C-223.182 163.226 -222.436 163.226 -221.702 163.226C-159.843 163.226 -105.937 139.677 -53.7742 116.883C-9.33513 97.4685 36.6198 77.3915 86.3882 72.8063C112.385 70.4077 139.128 74.105 168.121 84.1236C193.949 93.0423 219.068 105.99 243.369 118.513C281.684 138.272 321.299 158.693 363.898 163.159C378.599 164.697 392.578 163.729 406.665 160.204C419.224 157.05 431.579 151.922 444.427 144.5C468.331 130.705 490.491 110.813 511.928 91.5714C535.351 70.5535 559.567 48.8068 586.611 34.3354C625.973 13.2645 681.973 -2.83678 744.289 -11.0266C772.788 -14.7637 801.324 -16.6322 828.187 -16.6322Z" fill="url(#paint5_linear_1_33)"/>
<path d="M1120.01 229.619C1084.1 229.619 1057.84 220.554 1037.74 201.312C1018.68 183.064 1007.25 157.66 995.14 130.771C986.118 110.734 976.891 90.2065 963.934 70.8319C948.006 52.3319 930.093 35.6739 907.561 24.3566C893.823 17.4655 877.895 12.0851 860.307 8.29504C845.125 6.90356 828.512 7.18185 810.623 9.14316C758.978 14.8018 705.721 33.0102 662.93 47.6538C656.265 49.9332 649.961 52.0933 643.958 54.0944C601.203 68.3801 565.029 97.2301 530.045 125.139C487.278 159.237 446.881 191.453 399.675 192.526C395.934 192.606 392.205 192.632 388.499 192.592C378.839 194.699 368.951 196.038 358.701 196.674C334.569 198.171 310.665 193.321 285.63 181.871C281.384 179.923 277.173 177.829 272.999 175.616C254.881 171.071 237.029 166.022 219.357 161.026C168.277 146.581 115.453 131.646 60.0423 129.949C14.9055 128.571 -23.3862 142.38 -63.9276 157.01C-78.496 162.258 -93.5577 167.705 -109.089 172.436C-151.795 185.463 -188.595 182.945 -227.549 180.268C-246.905 178.943 -266.923 177.564 -288.577 178.015C-311.386 178.492 -331.729 180.626 -349.678 182.507C-385.299 186.244 -413.425 189.186 -435.765 176.146C-447.338 169.388 -457.167 158.455 -465.792 142.738C-474.887 126.173 -482.971 103.763 -490.502 74.2374L-490.574 73.9459L-490.31 74.0254C-464.818 82.2152 -441.84 95.03 -419.609 107.421C-391.146 123.297 -361.708 139.703 -326.508 146.753C-316.619 148.728 -306.731 150.861 -296.264 153.114C-262.171 160.456 -226.935 168.049 -193.828 169.587C-140.908 172.025 -94.1351 149.205 -48.9141 127.113C-25.8524 115.849 -1.99675 104.201 22.0995 96.289C49.095 87.4234 73.7085 84.2164 97.3717 86.4825C145.516 91.1075 184.084 117.347 221.39 142.738C238.124 154.121 255.327 165.823 273.131 175.298C310.268 184.628 348.512 191.863 388.499 192.261C409.504 187.676 429.426 179.526 449.612 167.347C475.645 151.643 498.13 131.712 521.937 110.615C550.761 85.0646 580.572 58.6531 617.552 39.9941C656.746 20.2219 709.426 6.57224 762.069 2.5436C789.63 0.436515 815.844 1.04611 839.976 4.35915C847.158 5.33981 854.088 6.559 860.764 8.00349C869.257 8.79862 877.282 10.1238 884.836 11.9659C909.354 17.9559 929.781 29.6575 945.54 46.7792C952.602 54.439 958.737 62.43 964.199 70.6066C974.388 82.454 983.76 95.0435 993.023 107.474C1027.91 154.347 1060.87 198.622 1128.99 191.559C1194.8 184.747 1264.34 158.071 1331.6 132.282C1382.59 112.722 1435.33 92.4992 1485.61 81.3542C1505.71 76.9014 1527.98 70.3681 1551.54 63.4638C1595.89 50.4767 1646.14 35.7536 1693.26 31.9767C1747.36 27.6433 1788.97 38.4173 1820.46 64.9348L1820.85 65.2529L1820.37 65.2264C1777.83 63.3578 1731.93 65.9552 1680.08 73.1644C1633.79 79.6049 1586.96 89.0669 1541.65 98.2109C1515.96 103.406 1489.37 108.773 1463.06 113.557C1395.66 125.828 1337.43 136.417 1275.27 167.254C1262.3 173.695 1249.5 181.063 1237.13 188.206C1219.97 198.092 1202.24 208.323 1184.07 215.983C1163.72 224.557 1144.85 228.983 1126.39 229.513C1124.21 229.592 1122.09 229.619 1120.01 229.619ZM965.582 72.7402C977.817 91.5185 986.719 111.291 995.417 130.612C1019.8 184.813 1040.85 231.607 1126.35 229.195C1144.78 228.678 1163.61 224.252 1183.93 215.691C1202.08 208.044 1219.81 197.814 1236.96 187.928C1249.34 180.785 1262.14 173.403 1275.12 166.963C1337.31 136.099 1395.55 125.51 1462.98 113.239C1489.3 108.455 1515.87 103.088 1541.57 97.8928C1586.88 88.7356 1633.72 79.2736 1680.01 72.8463C1731.68 65.6637 1777.43 63.053 1819.86 64.8818C1788.48 38.6558 1747.06 28.0011 1693.25 32.3213C1646.16 36.0982 1595.91 50.8213 1551.59 63.8083C1528.01 70.7127 1505.73 77.246 1485.63 81.6987C1435.38 92.8437 1382.65 113.066 1331.66 132.613C1264.39 158.415 1194.83 185.079 1128.97 191.903C1060.7 198.98 1027.69 154.638 992.758 107.699C984.012 95.9314 975.146 84.0177 965.582 72.7402ZM274.334 175.948C278.112 177.935 281.913 179.817 285.751 181.567C310.737 193.003 334.593 197.827 358.689 196.343C368.421 195.746 377.817 194.501 386.996 192.579C347.97 192.023 310.629 185.012 274.334 175.948ZM389.943 192.274C393.167 192.288 396.415 192.261 399.663 192.195C446.773 191.121 487.134 158.945 529.865 124.874C564.872 96.965 601.071 68.0886 643.874 53.7896C649.877 51.7885 656.181 49.6284 662.845 47.349C705.648 32.7187 758.918 14.497 810.599 8.83837C827.453 6.99633 843.176 6.63853 857.636 7.76496C829.269 1.97377 796.716 0.250972 762.045 2.90139C709.438 6.93003 656.806 20.5665 617.636 40.3122C580.692 58.9446 550.906 85.3561 522.093 110.893C498.274 132.004 475.79 151.935 449.721 167.652C429.967 179.552 410.466 187.636 389.943 192.274ZM-490.153 74.4362C-482.646 103.79 -474.598 126.08 -465.54 142.565C-456.938 158.229 -447.158 169.123 -435.633 175.855C-413.365 188.855 -385.275 185.913 -349.714 182.189C-331.753 180.308 -311.41 178.174 -288.589 177.697C-266.923 177.246 -246.893 178.625 -227.537 179.95C-188.607 182.627 -151.831 185.145 -109.173 172.131C-93.6539 167.4 -78.5923 161.967 -64.0238 156.705C-23.4584 142.075 14.8694 128.253 60.0544 129.631C115.489 131.328 168.337 146.263 219.441 160.708C236.692 165.584 254.124 170.514 271.796 174.98C254.4 165.624 237.582 154.174 221.197 143.029C183.916 117.665 145.372 91.4388 97.3115 86.827C73.6965 84.5609 49.107 87.7679 22.1597 96.6203C-1.91252 104.532 -25.7562 116.167 -48.8178 127.432C-94.0749 149.523 -140.86 172.37 -193.864 169.931C-226.995 168.407 -262.255 160.8 -296.349 153.459C-306.815 151.206 -316.692 149.072 -326.58 147.098C-361.828 140.048 -391.278 123.628 -419.765 107.739C-441.901 95.3878 -464.794 82.626 -490.153 74.4362ZM863.483 8.6131C879.892 12.3635 894.701 17.5318 907.694 24.0518C929.48 34.9848 946.948 50.8874 962.454 68.632C957.366 61.2241 951.712 53.9884 945.3 47.0178C929.576 29.949 909.197 18.2607 884.74 12.2972C878.027 10.6539 870.93 9.42148 863.483 8.6131Z" fill="url(#paint6_linear_1_33)"/>
<path d="M250.237 296.992C243.753 296.992 236.836 296.674 229.389 295.998C194.358 292.791 159.037 284.469 124.872 276.412C106.165 271.999 86.8327 267.44 67.8493 263.809C-44.4394 242.288 -162.142 235.979 -275.958 229.883L-279.014 229.724C-290.791 229.088 -314.912 236.43 -342.845 244.925C-403.369 263.332 -486.268 288.537 -516.897 255.606C-522.96 249.099 -526.785 240.445 -528.277 229.91C-529.877 218.632 -528.854 204.824 -525.233 188.881L-525.161 188.55L-524.969 188.828C-512.842 206.401 -500.74 219.136 -487.964 227.776C-476.187 235.741 -463.76 240.233 -449.985 241.506C-423.784 243.931 -394.912 234.402 -361.48 223.363L-359.375 222.674C-312.024 207.05 -271.11 206.003 -227.802 204.877C-208.566 204.373 -188.668 203.87 -167.447 202.067C-135.784 199.377 -102.906 187.053 -71.1221 175.126C-43.2725 164.683 -14.4845 153.869 13.6659 149.43C28.8358 147.031 42.5862 146.62 55.7109 148.184C70.4598 149.933 84.0298 154.095 97.2147 160.906C131.067 178.412 149.931 205.301 166.58 229.035C192.445 265.916 214.785 297.761 282.273 286.854L285.594 286.324C297.636 284.376 312.409 281.991 328.349 279.248C330.321 278.466 332.306 277.671 334.327 276.862C348.21 271.323 362.562 265.585 380.355 260.257C396.054 255.553 411.765 254.745 426.959 253.949C434.045 253.578 441.01 253.221 447.843 252.479C451.416 251.273 454.773 250.04 457.852 248.808C486.737 237.212 502.219 212.192 518.604 185.701C529.72 167.744 541.209 149.165 557.534 133.766C560.577 130.89 563.777 128.054 567.097 125.245C573.173 118.036 579.958 111.516 587.765 106.056C608.361 91.6374 633.72 79.1539 661.125 69.9304C663.867 69.0028 666.622 68.1149 669.389 67.2668C685.413 61.237 701.846 56.2277 718.219 52.4509C751.41 44.8044 782.52 42.525 810.706 45.6658C841.949 49.1379 868.403 59.2227 889.347 75.6554C920.902 100.41 939.428 130.943 957.329 160.456C972.174 184.932 986.201 208.057 1006.57 226.041C1029.45 246.25 1057 256.984 1093.27 259.834C1178.69 266.539 1262.64 226.478 1343.82 187.729C1383.55 168.765 1421.08 150.848 1458.87 137.98L1460.99 137.265C1505.12 122.237 1578.98 97.0842 1650.03 87.1849C1689.24 81.725 1723.51 81.4732 1751.9 86.456C1785.43 92.34 1811.7 105.658 1829.99 126.053L1830.28 126.385L1829.86 126.345C1696.54 112.046 1562.78 126.292 1432.28 168.685C1393.9 181.156 1355.08 200.676 1317.53 219.547C1282.42 237.199 1246.11 255.46 1209.59 268.355C1168.54 282.839 1131.85 288.75 1097.41 286.417C1007.16 280.308 979.681 235.065 944.89 177.79C931.404 155.592 917.461 132.64 898.37 109.077C847.206 45.9441 750.027 42.7371 669.197 67.7041C630.628 82.2417 594.478 102.61 567.302 125.51C554.418 140.803 544.734 159.197 535.266 177.18C523.103 200.292 511.603 222.131 494.303 235.754C479.867 247.125 464.288 251.06 447.891 252.823C416.878 263.305 368.83 272.608 328.433 279.566C303.759 289.306 282.141 296.992 250.237 296.992ZM-280.482 229.34C-279.964 229.34 -279.459 229.353 -278.99 229.38L-275.934 229.539C-162.106 235.635 -44.4033 241.943 67.9094 263.478C86.8929 267.122 106.237 271.681 124.932 276.08C159.085 284.138 194.394 292.46 229.413 295.667C272.709 299.63 297.816 291.267 326.845 279.804C311.482 282.442 297.287 284.734 285.63 286.616L282.309 287.146C214.652 298.079 192.264 266.155 166.34 229.194C149.714 205.5 130.875 178.624 97.0824 161.158C83.9335 154.36 70.3876 150.212 55.6748 148.462C42.5741 146.912 28.8478 147.323 13.7019 149.708C-14.4243 154.148 -43.2003 164.948 -71.0379 175.391C-102.845 187.318 -135.724 199.669 -167.435 202.359C-188.668 204.161 -208.566 204.678 -227.802 205.168C-271.086 206.281 -311.976 207.342 -359.303 222.953L-361.408 223.642C-394.876 234.681 -423.772 244.222 -450.021 241.797C-463.844 240.525 -476.319 236.019 -488.133 228.028C-500.872 219.414 -512.951 206.732 -525.029 189.266C-528.578 205.022 -529.576 218.672 -527.988 229.83C-526.497 240.3 -522.707 248.887 -516.692 255.341C-486.184 288.14 -403.381 262.961 -342.93 244.567C-316.091 236.43 -292.776 229.34 -280.482 229.34ZM761.888 52.7557C787.32 52.7557 810.767 56.3603 831.783 63.5032C859.332 72.8724 881.816 88.1124 898.598 108.825C917.714 132.414 931.657 155.38 945.155 177.578C979.897 234.774 1007.34 279.95 1097.43 286.06C1131.84 288.392 1168.49 282.495 1209.5 268.023C1246.01 255.142 1282.31 236.881 1317.43 219.229C1354.98 200.345 1393.82 180.811 1432.2 168.341C1562.6 125.987 1696.26 111.715 1829.49 125.947C1811.26 105.791 1785.14 92.6183 1751.87 86.7741C1723.5 81.8045 1689.26 82.0431 1650.08 87.5029C1579.06 97.4023 1505.2 122.542 1461.09 137.569L1458.97 138.285C1421.18 151.14 1383.66 169.056 1343.94 188.02C1268.79 223.894 1191.25 260.894 1112.35 260.894C1105.98 260.894 1099.63 260.655 1093.24 260.152C1056.91 257.302 1029.3 246.542 1006.38 226.292C985.973 208.269 971.934 185.131 957.076 160.641C939.188 131.142 920.673 100.636 889.166 75.9204C868.27 59.5275 841.864 49.4559 810.67 45.9971C782.52 42.8696 751.422 45.149 718.267 52.7822C703.591 56.1615 688.866 60.5479 674.43 65.756C698.67 58.7059 723.693 54.3857 747.536 53.1665C752.385 52.875 757.173 52.7557 761.888 52.7557ZM446.376 252.929C440.012 253.565 433.54 253.896 426.959 254.241C411.777 255.023 396.09 255.845 380.427 260.536C362.658 265.863 348.306 271.588 334.424 277.127C332.908 277.737 331.404 278.333 329.924 278.916C369.383 272.105 415.759 263.08 446.376 252.929ZM565.906 126.65C563.079 129.075 560.348 131.513 557.726 133.991C541.425 149.364 529.949 167.917 518.845 185.86C502.436 212.391 486.929 237.451 457.949 249.086C455.278 250.159 452.403 251.22 449.359 252.28C465.167 250.438 480.204 246.409 494.135 235.436C511.374 221.853 522.863 200.053 535.013 176.968C544.18 159.515 553.576 141.677 565.906 126.65ZM663.94 69.3341C635.416 78.6503 609.143 91.4651 587.921 106.321C580.667 111.396 574.291 117.4 568.553 124.012C594.345 102.597 627.958 83.4608 663.94 69.3341Z" fill="url(#paint7_linear_1_33)"/>
<path d="M294.893 338.829C240.361 338.829 184.505 329.354 131.284 319.375C114.562 316.234 97.4673 312.948 80.9259 309.781C-14.7974 291.4 -113.203 272.489 -210.587 267.771C-214.906 268.103 -219.212 268.381 -223.507 268.606C-252.139 270.051 -283.646 278.717 -317.005 287.901C-350.617 297.151 -385.155 306.653 -417.528 308.575C-423.772 309.993 -429.979 311.251 -436.079 312.312C-477.751 319.534 -505.721 315.837 -521.612 301.008C-534.027 289.412 -538.803 270.713 -535.808 245.402L-535.748 244.938L-535.519 245.349C-523.79 266.671 -509.667 282.15 -492.367 292.645C-477.017 301.962 -459.537 307.09 -438.918 308.323C-431.94 308.747 -424.806 308.694 -417.576 308.27C-387.501 301.458 -356.319 291.042 -330.37 282.388C-304.229 273.655 -283.573 266.764 -273.492 266.552C-252.608 266.101 -231.615 266.459 -210.599 267.48C-179.85 265.094 -148.548 259.899 -118.148 254.864C-82.5267 248.953 -45.6906 242.844 -9.79282 241.241C30.4839 239.438 65.2388 243.639 96.4688 254.069C115.633 260.469 133.822 267.228 151.422 273.761C231.194 303.406 300.09 329.009 395.849 296.303C423.518 286.854 447.603 271.045 469.473 247.973C488.962 227.419 504.878 203.194 520.264 179.777C533.124 160.204 546.418 139.968 561.648 122.17C578.707 102.226 596.499 87.4496 616.048 77.007C658.346 54.3988 712.721 51.5894 769.142 69.0689C794.442 76.9142 819.657 88.8279 842.069 103.525C864.373 118.155 884.042 135.648 898.935 154.095C933.521 196.926 971.813 240.234 1017.4 266.923C1062.76 293.494 1112.16 302.267 1172.85 294.541C1206.28 290.287 1243.37 278.943 1286.26 259.887C1324.57 242.858 1364.15 221.243 1402.43 200.331C1473.86 161.317 1547.72 120.978 1620.84 105.579C1660.27 97.2829 1696.11 96.7793 1730.39 104.041C1749 107.991 1767.34 114.365 1784.91 122.979C1803.37 132.03 1821.61 143.877 1839.13 158.19L1839.55 158.534L1839.04 158.495C1809.8 156.136 1780.94 152.346 1753.02 148.675C1712.56 143.347 1674.36 138.325 1634.92 137.265C1590.28 136.059 1551.96 140.193 1514.36 150.265C1455.3 166.088 1409.67 204.943 1365.53 242.526C1345.13 259.9 1324.04 277.856 1302.18 292.937C1277.73 309.807 1254.69 321.35 1231.75 328.201C1192.6 339.903 1137.53 339.293 1080.65 326.545C1023.59 313.756 972.583 290.459 940.703 262.643C911.579 237.225 895.121 207.01 879.218 177.789C865.768 153.087 853.052 129.75 833.852 112.125C812.355 92.406 785.552 82.4801 749.51 80.8898C723.248 79.7369 698.983 83.4077 675.332 92.1144C654.255 99.8801 634.153 111.502 613.87 127.643C576.192 157.633 543.615 199.125 512.108 239.24C508.836 243.414 505.564 247.575 502.279 251.736C480.95 278.784 454.568 299.736 423.879 313.995C396.439 326.757 365.774 334.416 330.129 337.411C318.472 338.392 306.718 338.829 294.893 338.829ZM-208.012 267.572C-111.435 272.489 -13.9192 291.228 80.986 309.449C97.5274 312.63 114.622 315.916 131.344 319.044C196.078 331.183 264.733 342.58 330.117 337.067C405.413 330.719 461.654 302.73 502.063 251.498C505.347 247.337 508.619 243.175 511.891 239.001C543.398 198.86 575.988 157.355 613.702 127.352C634.009 111.197 654.135 99.5621 675.236 91.7831C698.923 83.0499 723.224 79.3791 749.521 80.532C785.624 82.1223 812.487 92.0747 834.045 111.847C853.293 129.499 866.009 152.862 879.482 177.591C895.374 206.785 911.819 236.973 940.896 262.351C972.739 290.141 1023.71 313.412 1080.72 326.187C1137.56 338.935 1192.59 339.532 1231.69 327.857C1254.59 321.005 1277.61 309.489 1302.04 292.633C1323.87 277.565 1344.96 259.608 1365.37 242.248C1409.53 204.652 1455.18 165.77 1514.3 149.934C1551.93 139.849 1590.27 135.714 1634.95 136.92C1674.39 137.98 1712.61 143.016 1753.07 148.343C1780.82 152.001 1809.5 155.765 1838.54 158.123C1821.17 143.983 1803.09 132.255 1784.81 123.284C1767.25 114.67 1748.93 108.309 1730.35 104.36C1696.1 97.0974 1660.29 97.6009 1620.91 105.897C1547.83 121.282 1473.98 161.609 1402.57 200.623C1364.29 221.535 1324.72 243.149 1286.38 260.191C1243.46 279.261 1206.35 290.605 1172.9 294.872C1112.14 302.611 1062.7 293.825 1017.26 267.228C971.645 240.512 933.329 197.177 898.718 154.32C883.837 135.899 864.204 118.433 841.924 103.816C819.536 89.1327 794.346 77.219 769.082 69.387C712.722 51.9207 658.43 54.7301 616.192 77.2985C596.679 87.7279 578.923 102.478 561.888 122.396C546.682 140.18 533.389 160.403 520.529 179.976C505.13 203.406 489.215 227.644 469.702 248.211C447.795 271.323 423.675 287.159 395.958 296.621C300.102 329.367 231.17 303.751 151.35 274.079C133.762 267.546 115.561 260.774 96.4087 254.387C65.2146 243.97 30.4839 239.783 -9.75675 241.572C-45.6304 243.175 -82.4665 249.285 -118.076 255.182C-147.658 260.059 -178.082 265.108 -208.012 267.572ZM-535.555 245.918C-538.418 270.872 -533.667 289.319 -521.42 300.756C-505.612 315.519 -477.715 319.189 -436.139 311.98C-430.677 311.039 -425.131 309.926 -419.549 308.681C-426.118 309.012 -432.59 309.012 -438.954 308.628C-459.609 307.382 -477.137 302.253 -492.536 292.91C-509.751 282.455 -523.838 267.082 -535.555 245.918ZM-255.471 266.658C-261.486 266.658 -267.477 266.724 -273.468 266.857C-283.513 267.069 -304.145 273.96 -330.274 282.68C-355.646 291.148 -386.046 301.299 -415.507 308.111C-383.76 305.924 -349.967 296.634 -317.077 287.583C-283.706 278.399 -252.187 269.733 -223.519 268.288C-220.127 268.116 -216.722 267.904 -213.306 267.665C-227.393 267.003 -241.444 266.658 -255.471 266.658Z" fill="#EAEAEA"/>
<path d="M1185.54 369.071C1182.36 369.071 1179.16 369.031 1175.94 368.938C1150.11 368.249 1122.89 364.764 1095.01 358.588C1043.74 347.231 991.434 327.154 943.735 300.531C909.016 281.143 885.257 253.274 862.279 226.319C845.798 206.984 830.231 188.723 810.995 173.469C789.233 156.202 766.568 145.878 739.681 140.949C700.511 133.779 668.908 138.391 640.204 155.473C614.544 170.753 594.201 194.209 572.667 219.057C548.571 246.846 523.669 275.59 488.192 297.271C385.311 360.179 298.43 377.062 178.333 357.462C153.227 353.367 127.603 348.927 102.821 344.634C-11.826 324.756 -130.382 304.215 -247.423 308.76C-273.119 309.754 -304.939 321.164 -338.635 333.224C-378.009 347.324 -418.719 361.914 -454.641 361.914C-454.882 361.914 -455.122 361.914 -455.363 361.914C-474.924 361.808 -491.044 357.369 -504.638 348.344C-519.808 338.273 -531.826 322.132 -540.343 300.345L-540.776 299.232L-540.079 300.186C-526.208 319.163 -511.856 332.654 -496.181 341.413C-482.19 349.245 -467.429 353.102 -451.056 353.234C-420.56 353.46 -389.943 340.791 -357.534 327.379C-334.93 318.023 -311.567 308.363 -288.205 303.459C-237.438 292.805 -169.817 286.934 -102.689 287.385C-31.1704 287.862 34.2852 295.336 81.5875 308.455C85.7138 309.595 89.8642 310.748 94.0387 311.914C153.431 328.44 214.845 345.535 276.607 349.338C347.091 353.685 405.257 339.227 454.412 305.169C491.597 279.407 517.269 241.572 542.087 204.983C583.109 144.527 621.858 87.4099 706.598 92.7506C741.293 94.9372 769.13 104.677 794.201 123.416C816.565 140.14 834.021 161.98 852.487 185.105C870.7 207.898 889.527 231.474 914.899 252.624C936.348 270.501 960.914 285.755 987.921 297.973C1013.47 309.542 1041.2 318.381 1070.35 324.279C1125.86 335.49 1184.59 335.755 1240.23 325.047C1296.19 314.26 1360.78 274.875 1429.16 233.17C1501.09 189.306 1575.47 143.93 1647.23 127.14C1686.06 118.049 1720.24 118.168 1751.7 127.498C1768.83 132.573 1785.29 140.551 1800.61 151.206C1816.75 162.43 1832.18 176.981 1846.46 194.487L1846.76 194.858L1846.32 194.752C1792.94 182.879 1736.12 171.031 1679.98 168.063C1650.59 166.512 1623.57 167.427 1597.35 170.859C1568.32 174.662 1541.12 181.447 1514.17 191.585C1467.62 209.091 1430.26 242.129 1394.14 274.08C1373.4 292.421 1351.96 311.384 1329.2 326.956C1303.7 344.409 1279.09 355.739 1253.94 361.61C1232.7 366.566 1209.72 369.071 1185.54 369.071ZM706.189 137.344C716.776 137.344 727.915 138.431 739.753 140.604C766.688 145.534 789.389 155.897 811.187 173.191C830.448 188.457 846.015 206.732 862.508 226.08C885.473 253.022 909.209 280.865 943.879 300.226C991.555 326.85 1043.84 346.913 1095.07 358.257C1122.94 364.433 1150.15 367.905 1175.95 368.607C1203.63 369.349 1229.86 366.884 1253.89 361.279C1279 355.421 1303.58 344.104 1329.06 326.664C1351.81 311.106 1373.24 292.142 1393.97 273.801C1430.12 241.837 1467.49 208.773 1514.09 191.254C1541.06 181.116 1568.29 174.331 1597.34 170.514C1623.57 167.069 1650.61 166.154 1680.01 167.718C1736.02 170.687 1792.69 182.468 1845.94 194.315C1831.76 177.008 1816.46 162.59 1800.46 151.471C1785.15 140.83 1768.73 132.865 1751.63 127.803C1720.22 118.486 1686.09 118.367 1647.3 127.445C1575.59 144.235 1501.23 189.584 1429.32 233.435C1360.91 275.153 1296.31 314.552 1240.29 325.352C1184.63 336.073 1125.85 335.808 1070.3 324.583C1041.14 318.686 1013.39 309.834 987.813 298.265C960.794 286.033 936.204 270.767 914.73 252.876C889.323 231.712 870.484 208.124 852.27 185.304C833.816 162.192 816.385 140.365 794.045 123.668C769.022 104.969 741.245 95.242 706.598 93.0554C622.039 87.728 583.326 144.765 542.351 205.155C517.509 241.758 491.825 279.619 454.592 305.421C405.377 339.518 347.163 353.99 276.607 349.643C214.821 345.84 153.383 328.744 93.9785 312.206C89.8041 311.04 85.6536 309.887 81.5274 308.747C34.2371 295.641 -31.1824 288.166 -102.677 287.689C-169.781 287.252 -237.378 293.096 -288.133 303.764C-311.459 308.667 -334.822 318.328 -357.414 327.671C-389.57 340.976 -419.958 353.552 -450.226 353.552C-450.503 353.552 -450.767 353.552 -451.044 353.552C-467.465 353.433 -482.262 349.55 -496.301 341.705C-511.748 333.065 -525.919 319.865 -539.597 301.339C-531.14 322.489 -519.327 338.206 -504.458 348.066C-490.912 357.051 -474.84 361.477 -455.339 361.583C-419.297 361.782 -378.322 347.112 -338.707 332.919C-304.999 320.846 -273.155 309.436 -247.423 308.442C-130.358 303.897 -11.79 324.437 102.869 344.316C127.651 348.609 153.287 353.049 178.381 357.144C209.551 362.233 238.496 364.857 266.057 364.857C344.601 364.857 411.933 343.534 488.048 296.992C523.476 275.325 548.379 246.608 572.451 218.831C593.997 193.97 614.364 170.488 640.06 155.181C660.162 143.215 681.672 137.344 706.189 137.344Z" fill="url(#paint8_linear_1_33)"/>
<path d="M318.496 400.068C270.881 400.068 222.232 392.249 174.388 384.563C148.68 380.428 124.391 376.532 100.163 373.762C64.674 369.72 27.7898 364.923 -7.87943 360.285C-98.4178 348.53 -192.048 336.365 -280.601 333.688C-283.019 333.608 -285.437 333.608 -287.879 333.674C-309.04 338.591 -331.296 346.569 -354.322 354.811C-423.374 379.54 -494.773 405.117 -544.806 346.94L-544.601 346.688C-532.27 357.078 -519.302 364.22 -504.95 368.514C-492.174 372.344 -478.592 373.815 -463.422 373.02C-435.248 371.536 -405.822 362.193 -377.359 353.168C-347.669 343.759 -317.04 334.045 -287.903 333.33C-274.153 330.136 -260.872 328.241 -248.144 328.36C-134.58 329.579 -15.7351 341.414 125.859 365.625C197.895 377.937 253.089 382.469 304.794 380.322C367.483 377.725 424.65 364.777 479.555 340.764C497.588 332.879 514.069 321.973 529.66 309.715C530.527 308.866 531.405 308.032 532.271 307.183C549.089 290.857 565.041 275.365 583.291 262.378C602.31 245.031 620.885 228.983 641.516 216.791C654.641 209.038 667.321 203.618 680.289 200.239C694.809 196.449 709.33 195.282 724.68 196.661C749.703 198.9 775.014 207.726 802.057 223.616C826.19 237.795 849.504 256.203 872.048 274.013C903.266 298.662 935.531 324.146 970.851 339.227C1020.02 360.219 1072.61 372.53 1127.18 375.816C1180.32 379.01 1233.9 373.59 1286.44 359.702C1332.5 347.523 1388.99 310.934 1448.81 272.211C1483.87 249.497 1520.14 226.014 1556.52 205.951C1597.71 183.236 1633.05 168.368 1664.57 160.469C1702.81 150.888 1735.81 151.272 1765.46 161.635C1781.64 167.294 1796.92 176.094 1810.86 187.808C1825.58 200.159 1839.29 216.155 1851.63 235.344L1851.87 235.715L1851.48 235.596C1840.9 232.508 1830.24 229.288 1819.92 226.187C1717.28 195.23 1620.33 165.995 1524.02 231.779C1514.76 238.1 1505.49 244.488 1496.54 250.677C1452.61 280.984 1411.1 309.609 1366.81 333.29C1316.99 359.927 1271.17 376.254 1222.6 384.682C1193.79 389.678 1164.8 391.838 1136.45 391.07C1109.05 390.327 1081.28 386.855 1053.89 380.72C1002.25 369.164 950.484 348.212 895.651 316.672C885.185 310.642 874.707 304.401 864.578 298.358C831.627 278.691 800.518 260.125 767.062 247.244C749.101 240.326 732.151 235.715 715.272 233.157C696.385 230.295 678.003 230.03 659.068 232.362C633.372 235.529 610.791 244.156 587.982 259.529C586.466 260.549 584.963 261.596 583.471 262.656C579.994 265.837 576.494 269.057 572.969 272.304C559.026 285.145 544.854 298.185 529.865 309.98C507.008 332.15 483.2 354.759 452.728 370.568C410.105 392.673 364.788 400.068 318.496 400.068ZM-284.559 333.303C-283.236 333.303 -281.912 333.317 -280.601 333.356C-192.024 336.033 -98.4057 348.199 -7.85538 359.953C27.8138 364.592 64.6981 369.376 100.187 373.431C124.427 376.2 148.716 380.097 174.424 384.231C268.728 399.392 366.232 415.056 452.56 370.277C482.033 354.984 505.3 333.29 527.483 311.822C512.566 323.351 496.806 333.582 479.639 341.096C424.698 365.122 367.507 378.069 304.782 380.68C253.053 382.827 197.847 378.294 125.787 365.983C-15.7952 341.785 -134.628 329.937 -248.168 328.731C-260.403 328.599 -273.143 330.361 -286.315 333.343C-285.726 333.303 -285.137 333.303 -284.559 333.303ZM684.331 230.467C694.617 230.467 704.878 231.262 715.284 232.839C732.187 235.41 749.149 240.022 767.134 246.939C800.614 259.834 831.748 278.413 864.698 298.079C874.827 304.122 885.293 310.364 895.76 316.394C950.569 347.921 1002.31 368.859 1053.93 380.415C1081.3 386.537 1109.06 390.023 1136.43 390.751C1164.78 391.507 1193.74 389.36 1222.54 384.364C1271.07 375.949 1316.87 359.622 1366.66 332.999C1410.94 309.33 1452.44 280.706 1496.36 250.398C1505.32 244.223 1514.59 237.835 1523.84 231.501C1620.26 165.638 1717.27 194.898 1819.98 225.869C1830.16 228.943 1840.69 232.11 1851.13 235.158C1838.86 216.168 1825.25 200.332 1810.66 188.074C1796.74 176.385 1781.5 167.599 1765.34 161.954C1735.75 151.617 1702.8 151.233 1664.61 160.787C1633.12 168.672 1597.8 183.541 1556.63 206.242C1520.26 226.293 1484.01 249.775 1448.94 272.489C1389.11 311.239 1332.6 347.828 1286.48 360.02C1233.93 373.921 1180.32 379.341 1127.15 376.148C1072.55 372.861 1019.92 360.55 970.719 339.545C935.363 324.451 903.074 298.954 871.844 274.292C849.299 256.494 825.997 238.087 801.889 223.92C774.881 208.058 749.606 199.245 724.62 197.005C709.293 195.627 694.809 196.793 680.313 200.583C667.381 203.963 654.713 209.369 641.612 217.109C621.691 228.877 603.682 244.262 585.324 260.934C586.142 260.364 586.96 259.807 587.778 259.25C610.623 243.852 633.251 235.198 658.996 232.031C667.537 230.984 675.946 230.467 684.331 230.467ZM-543.278 348.225C-493.449 404.295 -422.785 378.983 -354.43 354.507C-331.958 346.463 -310.231 338.684 -289.54 333.727C-318.147 334.748 -348.162 344.263 -377.299 353.499C-405.774 362.524 -435.224 371.867 -463.434 373.364C-478.628 374.173 -492.246 372.689 -505.058 368.859C-518.833 364.711 -531.368 357.952 -543.278 348.225ZM581.209 264.286C563.898 276.929 548.572 291.798 532.451 307.448C532.355 307.541 532.247 307.647 532.151 307.74C546.226 296.476 559.591 284.164 572.752 272.052C575.591 269.441 578.406 266.844 581.209 264.286Z" fill="url(#paint9_linear_1_33)"/>
<path d="M-426.057 448.65C-432.83 448.65 -439.543 448.371 -446.183 447.775C-492.21 443.587 -525.955 423.643 -549.353 386.828L-549.858 386.033L-549.137 386.59C-533.822 398.649 -518.279 406.839 -501.63 411.65C-486.773 415.943 -471.362 417.414 -454.484 416.155C-423.11 413.823 -391.122 402.068 -360.192 390.698C-332.186 380.401 -303.218 369.76 -274.129 365.718C-199.037 355.288 -119.723 368.196 -43.0314 380.693C-4.09 387.027 36.1746 393.587 74.6468 396.781C89.3355 398 103.435 399.06 117.041 399.961C122.791 399.71 128.517 399.471 134.232 399.206C148.74 398.557 163.537 397.934 177.841 397.338C269.029 393.508 363.044 389.545 454.749 375.988C483.874 366.129 512.229 352.174 539.886 338.551C564.536 326.412 590.027 313.862 615.483 304.546C644.018 294.09 669.606 288.842 693.714 288.511C743.158 287.795 794.502 306.892 844.163 325.326C876.764 337.438 910.472 349.948 942.761 356.428C1070.66 382.058 1192.16 383.86 1303.88 361.809C1385.15 345.76 1448.05 310.086 1514.62 272.317C1524.42 266.764 1534.34 261.132 1544.41 255.527C1551.57 250.425 1558.95 245.362 1566.63 240.353C1581.33 230.758 1596.5 224.358 1611.95 220.528C1660.1 200.65 1758.08 184.734 1812.87 218.301C1835.02 231.872 1847.93 252.227 1851.22 278.797L1851.26 279.076L1851.02 278.983C1839.9 274.398 1828.74 269.534 1816.91 264.379C1751.47 235.874 1678.92 204.281 1611.99 220.872C1608.85 222.171 1605.88 223.509 1603.1 224.874C1582.83 234.84 1563.4 245.322 1544.55 255.845C1524.4 270.197 1506.09 284.787 1488.23 299.02C1460.88 320.807 1435.07 341.387 1405.62 358.814C1372.55 378.387 1339.71 391.136 1302.23 398.954C1252.2 409.384 1199.89 414.446 1146.76 413.956C1093.04 413.465 1040.9 407.356 991.784 395.774C957.714 387.743 923.332 375.087 890.081 362.842C835.164 342.62 778.37 321.708 720.421 320.475C670.99 319.428 621.702 334.191 574.063 348.464C544.229 357.409 513.384 366.646 482.863 371.88C473.54 373.484 464.193 374.968 454.809 376.359C444.74 379.765 434.587 382.681 424.337 384.92C371.272 396.529 314.238 402.771 249.973 404.017C209.672 404.798 166.677 403.619 117.029 400.346C97.6723 401.167 78.1957 401.949 59.2243 402.718C-48.1562 407.012 -159.182 411.451 -267.14 425.326C-284.042 427.499 -302.099 431.051 -321.215 434.828C-355.994 441.6 -391.759 448.65 -426.057 448.65ZM-548.595 387.425C-525.269 423.656 -491.753 443.283 -446.159 447.444C-405.931 451.115 -362.887 442.633 -321.275 434.43C-302.147 430.667 -284.09 427.102 -267.176 424.928C-159.206 411.053 -48.1682 406.614 59.2122 402.32C77.1972 401.605 95.6273 400.863 113.985 400.081C101.317 399.233 88.2167 398.239 74.6227 397.112C36.1385 393.918 -4.13816 387.359 -43.0795 381.024C-119.759 368.541 -199.049 355.633 -274.105 366.062C-303.17 370.104 -332.114 380.732 -360.12 391.029C-391.073 402.4 -423.073 414.168 -454.484 416.5C-471.386 417.759 -486.833 416.275 -501.726 411.981C-518.135 407.223 -533.473 399.193 -548.595 387.425ZM715.405 320.025C717.089 320.025 718.761 320.038 720.445 320.078C778.442 321.31 835.26 342.235 890.202 362.458C923.453 374.703 957.823 387.359 991.88 395.39C1040.99 406.972 1093.1 413.081 1146.79 413.572C1199.92 414.049 1252.2 409 1302.21 398.583C1339.65 390.778 1372.48 378.029 1405.51 358.482C1434.94 341.069 1460.75 320.489 1488.08 298.715C1505.25 285.039 1522.83 271.032 1542.06 257.21C1532.85 262.365 1523.77 267.507 1514.79 272.609C1448.19 310.39 1385.28 346.078 1303.96 362.127C1192.2 384.192 1070.66 382.376 942.737 356.746C910.424 350.266 876.704 337.743 844.09 325.644C795.333 307.541 744.95 288.816 696.373 288.816C695.495 288.816 694.617 288.816 693.739 288.829C669.666 289.174 644.114 294.408 615.603 304.851C590.16 314.167 564.668 326.717 540.03 338.843C512.902 352.201 485.101 365.877 456.578 375.71C465.36 374.398 474.117 372.993 482.839 371.496C513.336 366.261 544.181 357.025 574.003 348.093C620.042 334.284 667.609 320.025 715.405 320.025ZM120.12 400.147C168.481 403.274 210.527 404.388 249.985 403.619C314.226 402.373 371.248 396.132 424.301 384.523C433.949 382.416 443.501 379.712 452.981 376.558C361.841 389.916 268.463 393.839 177.865 397.642C163.561 398.239 148.764 398.861 134.256 399.511C129.552 399.736 124.836 399.948 120.12 400.147ZM1651.06 215.903C1706.56 215.903 1764.13 240.976 1817.06 264.035C1828.8 269.15 1839.88 273.974 1850.91 278.532C1847.57 252.214 1834.73 232.031 1812.74 218.566C1779.97 198.489 1734.63 197.535 1702.36 200.278C1671.25 202.916 1638.09 210.416 1614.08 220.011C1626.25 217.162 1638.6 215.903 1651.06 215.903ZM1609.9 221.376C1595.21 225.246 1580.81 231.487 1566.81 240.618C1560 245.057 1553.42 249.55 1547.02 254.069C1565.08 244.037 1583.65 234.045 1603.01 224.53C1605.16 223.47 1607.46 222.423 1609.9 221.376Z" fill="url(#paint10_linear_1_33)"/>
<path d="M-430.28 467.176C-438.605 467.176 -446.857 466.818 -455.014 465.997C-495.11 461.968 -526.46 446.953 -550.845 420.091L-551.699 419.15L-550.665 419.826C-491.609 458.417 -421.438 440.645 -353.576 423.444C-316.8 414.128 -282.057 405.329 -248.926 404.838C-183.122 403.871 -115.994 409.861 -51.0797 415.665C13.8586 421.47 81.0226 427.46 147.116 426.545C261.823 424.955 362.201 415.016 453.967 396.198C483.946 390.049 513.468 379.275 542.015 368.846C574.544 356.972 608.168 344.687 642.43 339.32C704.325 329.619 769.323 348.424 832.18 366.606C869.089 377.287 907.248 388.313 943.807 393.163C1069.87 409.888 1202.54 407.144 1338.13 385.04C1384.59 377.46 1426.59 365.559 1470.29 347.589C1509.65 331.395 1546.78 311.756 1586.07 290.95C1605.39 280.719 1625.37 270.144 1646.81 259.33C1664.99 250.16 1699.03 243.626 1731.52 243.096C1771.81 242.434 1804.09 250.809 1822.41 266.672C1838 280.162 1843.83 298.901 1839.71 322.371L1839.68 322.596L1839.49 322.477C1806.83 302.333 1773.61 290.287 1737.9 285.622C1706.11 281.474 1673.08 283.33 1636.93 291.294C1569.79 306.097 1501.97 340.287 1436.38 373.351C1379.73 401.91 1321.15 431.436 1263.66 448.054C1233.64 456.734 1204.16 461.412 1173.56 462.366C1146.26 463.214 1118.65 461.054 1089.17 455.753C1034.35 445.894 980.788 426.28 928.998 407.317C855.892 380.534 780.283 352.85 696.83 350.173C646.388 348.557 593.552 366.5 542.46 383.847C507.813 395.615 472 407.767 437.57 413.545C319.495 433.33 197.017 437.333 78.5684 441.189L67.8737 441.533C27.0436 442.872 -14.4602 443.349 -54.5805 443.813C-137.203 444.767 -222.641 445.748 -306.502 454.295C-319.471 455.62 -332.644 457.449 -346.598 459.384C-374.22 463.24 -402.586 467.176 -430.28 467.176ZM-549.774 420.794C-525.57 447.006 -494.544 461.69 -454.989 465.665C-419.705 469.217 -382.556 464.062 -346.623 459.066C-332.668 457.131 -319.495 455.302 -306.526 453.977C-222.653 445.416 -137.203 444.436 -54.5805 443.482C-14.4482 443.018 27.0436 442.541 67.8737 441.202L78.5684 440.858C197.004 436.988 319.483 432.999 437.534 413.214C471.94 407.449 507.753 395.284 542.388 383.529C593.504 366.169 646.364 348.225 696.854 349.842C780.355 352.506 855.976 380.216 929.119 406.999C980.896 425.962 1034.43 445.576 1089.24 455.422C1118.71 460.723 1146.3 462.883 1173.57 462.035C1204.15 461.081 1233.6 456.403 1263.6 447.736C1321.07 431.131 1379.63 401.605 1436.27 373.047C1501.87 339.969 1569.72 305.766 1636.88 290.963C1673.06 282.985 1706.12 281.13 1737.95 285.291C1773.62 289.943 1806.83 301.975 1839.47 322.066C1843.48 298.848 1837.69 280.295 1822.24 266.924C1803.97 251.101 1771.77 242.765 1731.55 243.414C1699.09 243.944 1665.09 250.464 1646.95 259.622C1625.53 270.435 1605.55 281.011 1586.23 291.241C1507.57 332.866 1439.65 368.819 1338.2 385.358C1202.59 407.476 1069.88 410.206 943.795 393.481C907.212 388.631 869.041 377.592 832.132 366.911C769.299 348.742 704.337 329.951 642.502 339.638C608.265 345.005 574.653 357.276 542.135 369.15C513.576 379.58 484.054 390.354 454.051 396.516C362.262 415.347 261.871 425.273 147.14 426.877C81.0346 427.804 13.8707 421.801 -51.0797 415.997C-115.994 410.205 -183.098 404.215 -248.902 405.17C-282.009 405.66 -316.728 414.446 -353.492 423.762C-391.495 433.397 -430.244 443.203 -467.344 443.203C-496.18 443.216 -524.006 437.306 -549.774 420.794Z" fill="url(#paint11_linear_1_33)"/>
</g>
<defs>
<linearGradient id="paint0_linear_1_33" x1="653.564" y1="-73.058" x2="653.564" y2="281.718" gradientUnits="userSpaceOnUse">
<stop stop-color="#EAEAEA"/>
<stop offset="0.9996" stop-color="#AA9261"/>
</linearGradient>
<linearGradient id="paint1_linear_1_33" x1="663.556" y1="-73.0581" x2="663.556" y2="281.718" gradientUnits="userSpaceOnUse">
<stop stop-color="#EAEAEA"/>
<stop offset="0.9996" stop-color="#AA9261"/>
</linearGradient>
<linearGradient id="paint2_linear_1_33" x1="673.957" y1="-73.0582" x2="673.957" y2="281.718" gradientUnits="userSpaceOnUse">
<stop stop-color="#EAEAEA"/>
<stop offset="0.9996" stop-color="#AA9261"/>
</linearGradient>
<linearGradient id="paint3_linear_1_33" x1="681.928" y1="-73.0582" x2="681.928" y2="281.718" gradientUnits="userSpaceOnUse">
<stop stop-color="#EAEAEA"/>
<stop offset="0.9996" stop-color="#AA9261"/>
</linearGradient>
<linearGradient id="paint4_linear_1_33" x1="683.169" y1="-73.0578" x2="683.169" y2="281.718" gradientUnits="userSpaceOnUse">
<stop stop-color="#EAEAEA"/>
<stop offset="0.9996" stop-color="#AA9261"/>
</linearGradient>
<linearGradient id="paint5_linear_1_33" x1="676.621" y1="-73.0579" x2="676.621" y2="281.718" gradientUnits="userSpaceOnUse">
<stop stop-color="#EAEAEA"/>
<stop offset="0.9996" stop-color="#AA9261"/>
</linearGradient>
<linearGradient id="paint6_linear_1_33" x1="665.108" y1="-73.0579" x2="665.108" y2="281.718" gradientUnits="userSpaceOnUse">
<stop stop-color="#EAEAEA"/>
<stop offset="0.9996" stop-color="#AA9261"/>
</linearGradient>
<linearGradient id="paint7_linear_1_33" x1="650.639" y1="-73.0581" x2="650.639" y2="281.718" gradientUnits="userSpaceOnUse">
<stop stop-color="#EAEAEA"/>
<stop offset="0.9996" stop-color="#AA9261"/>
</linearGradient>
<linearGradient id="paint8_linear_1_33" x1="653.012" y1="-73.0581" x2="653.012" y2="281.718" gradientUnits="userSpaceOnUse">
<stop stop-color="#EAEAEA"/>
<stop offset="0.9996" stop-color="#AA9261"/>
</linearGradient>
<linearGradient id="paint9_linear_1_33" x1="653.524" y1="-73.058" x2="653.524" y2="281.718" gradientUnits="userSpaceOnUse">
<stop stop-color="#EAEAEA"/>
<stop offset="0.9996" stop-color="#AA9261"/>
</linearGradient>
<linearGradient id="paint10_linear_1_33" x1="650.715" y1="-73.0583" x2="650.715" y2="281.718" gradientUnits="userSpaceOnUse">
<stop stop-color="#EAEAEA"/>
<stop offset="0.9996" stop-color="#AA9261"/>
</linearGradient>
<linearGradient id="paint11_linear_1_33" x1="644.66" y1="-73.0582" x2="644.66" y2="281.718" gradientUnits="userSpaceOnUse">
<stop stop-color="#EAEAEA"/>
<stop offset="0.9996" stop-color="#AA9261"/>
</linearGradient>
<clipPath id="clip0_1_33">
<rect width="1280" height="274" fill="white"/>
</clipPath>
</defs>
</svg>
