<svg width="64" height="63" viewBox="0 0 64 63" fill="none" xmlns="http://www.w3.org/2000/svg">
<g clip-path="url(#clip0_1_264)">
<path d="M63.2405 63C42.1609 63 21.0796 63 0 63C0 42.2498 0 21.498 0 0.747828C0.335524 0.166001 0.846322 0 1.51236 0C21.8425 0.011505 42.1709 0.00986147 62.501 0.00986147C63.6495 0.00986147 63.9917 0.346795 63.9917 1.47593C63.9917 21.4881 63.99 41.4987 64.0017 61.5109C64 62.1667 63.8314 62.6713 63.2405 63ZM2.14502 60.8568C22.0778 60.8568 41.9539 60.8568 61.8249 60.8568C61.8249 41.2587 61.8249 21.7084 61.8249 2.15144C41.9122 2.15144 22.0361 2.15144 2.14502 2.15144C2.14502 21.7363 2.14502 41.2719 2.14502 60.8568Z" fill="white"/>
<path d="M59.7331 31.5006C59.7331 38.3264 59.7331 45.1538 59.7331 51.9796C59.7331 53.1564 59.5044 53.4177 58.3426 53.5788C56.0423 53.8976 54.7436 55.178 54.4198 57.4461C54.2595 58.5687 53.9875 58.807 52.8507 58.807C38.9389 58.807 25.0289 58.807 11.1171 58.807C10.0171 58.807 9.72997 58.5572 9.57807 57.4839C9.24755 55.15 7.95553 53.8894 5.56346 53.5656C4.5235 53.4243 4.25809 53.1268 4.25809 52.0798C4.25642 38.3658 4.25642 24.6518 4.25809 10.9378C4.25809 9.86617 4.51516 9.58677 5.61688 9.43556C7.9572 9.11342 9.24755 7.84129 9.5764 5.53206C9.72997 4.45223 10.0137 4.2024 11.1088 4.2024C25.0406 4.20076 38.9723 4.20076 52.9041 4.2024C53.9641 4.2024 54.2629 4.46373 54.4081 5.49426C54.7403 7.86594 56.0273 9.12163 58.4578 9.44871C59.4543 9.58184 59.7314 9.89083 59.7314 10.9C59.7331 17.7652 59.7331 24.6337 59.7331 31.5006ZM57.5864 11.4884C54.7253 10.826 52.9876 9.09205 52.3249 6.31769C38.7537 6.31769 25.2225 6.31769 11.6597 6.31769C11.0003 9.12656 9.22585 10.8507 6.41646 11.4917C6.41646 24.8786 6.41646 38.1982 6.41646 51.5243C9.26424 52.1834 11.002 53.9174 11.6647 56.6917C25.2359 56.6917 38.767 56.6917 52.3299 56.6917C52.9892 53.8845 54.7653 52.1604 57.5864 51.5161C57.5864 38.1489 57.5864 24.8474 57.5864 11.4884Z" fill="white"/>
<path d="M31.9884 50.4101C27.5532 50.4101 23.1179 50.4101 18.6826 50.4101C17.3656 50.4101 17.0701 50.1159 17.0684 48.8142C17.0668 47.708 17.0618 46.6003 17.0701 45.4941C17.0785 44.4768 17.4374 44.102 18.4489 44.1004C27.4864 44.0954 36.5222 44.0954 45.5596 44.1004C46.5428 44.1004 46.9118 44.4768 46.9218 45.4481C46.9335 46.6167 46.9301 47.7853 46.9234 48.9539C46.9184 50.0764 46.5762 50.4101 45.4194 50.4101C40.9408 50.4117 36.4638 50.4101 31.9884 50.4101ZM19.2368 48.2652C27.7535 48.2652 36.2384 48.2652 44.7534 48.2652C44.7534 47.5765 44.7534 46.9273 44.7534 46.2403C36.2367 46.2403 27.7518 46.2403 19.2368 46.2403C19.2368 46.929 19.2368 47.5782 19.2368 48.2652Z" fill="white"/>
<path d="M39.4352 27.2833C34.4508 27.2833 29.5247 27.2833 24.5603 27.2833C24.5603 26.6094 24.5603 25.9635 24.5603 25.2354C25.2313 25.2354 25.9024 25.2354 26.6118 25.2354C26.6118 23.4439 26.6118 21.7346 26.6118 19.9464C26.2913 19.9464 25.9859 19.9464 25.6804 19.9464C25.1713 19.948 24.794 19.7376 24.6104 19.2577C24.4251 18.7712 24.5954 18.3702 24.9759 18.0513C25.8173 17.3495 26.6669 16.6576 27.5149 15.9623C28.7135 14.9778 29.9087 13.9917 31.1122 13.0121C31.7482 12.496 32.2239 12.4829 32.8416 12.9858C34.8764 14.6458 36.9046 16.3141 38.9344 17.9807C39.3517 18.3242 39.5838 18.7351 39.3684 19.2758C39.1665 19.782 38.7508 19.9628 38.2233 19.9464C38.0564 19.9414 37.8895 19.9431 37.7242 19.948C37.624 19.9497 37.5239 19.9612 37.3803 19.971C37.3803 21.7067 37.3803 23.416 37.3803 25.2058C38.0547 25.2058 38.7291 25.2058 39.4335 25.2058C39.4352 25.9323 39.4352 26.5782 39.4352 27.2833ZM30.8868 25.1812C30.8868 23.4373 30.8868 21.7297 30.8868 19.994C30.1858 19.994 29.5164 19.994 28.8353 19.994C28.8353 21.7477 28.8353 23.4571 28.8353 25.1812C29.5364 25.1812 30.1924 25.1812 30.8868 25.1812ZM33.1053 25.1664C33.8131 25.1664 34.4808 25.1664 35.1552 25.1664C35.1552 23.4078 35.1552 21.6984 35.1552 19.9858C34.4508 19.9858 33.7931 19.9858 33.1053 19.9858C33.1053 21.7297 33.1053 23.4373 33.1053 25.1664ZM31.9952 15.0239C30.8585 15.9574 29.7734 16.8499 28.6183 17.7999C30.9236 17.7999 33.0986 17.7999 35.3789 17.7999C34.2054 16.8384 33.1253 15.9508 31.9952 15.0239Z" fill="white"/>
<path d="M35.1733 34.6613C34.6925 34.6613 34.3186 34.6547 33.948 34.663C33.4723 34.6728 33.0884 34.709 32.8346 34.0992C32.5408 33.3958 31.6695 33.4599 31.0502 34.1978C31.2705 34.3671 31.4875 34.5413 31.7095 34.7057C32.6076 35.3697 33.5073 36.0304 34.4054 36.6944C35.1749 37.2631 35.3402 37.748 35.0631 38.6634C34.8361 39.4195 34.4138 40.0769 33.6976 40.4204C33.1451 40.685 32.9832 41.0269 33.06 41.5726C33.0767 41.6876 33.0333 41.8092 33.0149 41.9605C32.3372 41.9605 31.6795 41.9605 31.0318 41.9605C30.9984 41.9128 30.95 41.8783 30.9534 41.8487C31.0535 41.1025 30.7497 40.6587 30.0703 40.2561C29.2123 39.7482 28.835 38.8689 28.82 37.794C29.456 37.794 30.0369 37.7759 30.6128 37.8071C30.7447 37.8137 30.92 37.9715 30.9834 38.1013C31.4208 38.9971 32.2504 39.1006 32.9298 38.2624C32.6794 38.0668 32.4323 37.863 32.1753 37.6724C31.3106 37.0314 30.4426 36.3969 29.5779 35.7576C28.8267 35.2021 28.6548 34.732 28.9085 33.8445C29.1305 33.0654 29.5578 32.3899 30.2957 32.0316C30.8432 31.7653 31.0068 31.4202 30.9283 30.8778C30.9116 30.7644 30.95 30.6428 30.9684 30.4883C31.6528 30.4883 32.3071 30.4883 32.9548 30.4883C32.9882 30.5343 33.0349 30.5688 33.0316 30.5984C32.9498 31.3331 33.2186 31.7933 33.9113 32.1927C34.776 32.694 35.1482 33.5799 35.1733 34.6613Z" fill="white"/>
<path d="M22.4297 35.7314C23.8319 35.7314 25.209 35.7314 26.6212 35.7314C26.6212 36.4119 26.6212 37.0578 26.6212 37.7498C25.2324 37.7498 23.8536 37.7498 22.4297 37.7498C22.4297 37.0874 22.4297 36.4267 22.4297 35.7314Z" fill="white"/>
<path d="M37.3867 35.7266C38.8039 35.7266 40.1661 35.7266 41.5666 35.7266C41.5666 36.4004 41.5666 37.0464 41.5666 37.7416C40.1928 37.7416 38.8139 37.7416 37.3867 37.7416C37.3867 37.0957 37.3867 36.4366 37.3867 35.7266Z" fill="white"/>
</g>
<defs>
<clipPath id="clip0_1_264">
<rect width="64" height="63" fill="white"/>
</clipPath>
</defs>
</svg>
