<svg width="63" height="36" viewBox="0 0 63 36" fill="none" xmlns="http://www.w3.org/2000/svg">
<path d="M40.1316 34.236C39.5171 32.2441 38.9239 30.3176 38.3274 28.3927C38.0563 27.5176 37.7621 26.6507 37.5156 25.769C37.4236 25.4409 37.2692 25.3511 36.9455 25.3527C33.2762 25.3625 29.6053 25.3543 25.9361 25.3723C25.7619 25.3723 25.476 25.5274 25.4316 25.6694C24.5443 28.4874 23.6849 31.3119 22.8222 34.1364C22.8173 34.1527 22.8304 34.1756 22.8419 34.2343C23.4828 34.2343 24.1302 34.2262 24.7793 34.236C25.43 34.2458 25.7915 34.5592 25.7915 35.0915C25.7915 35.6139 25.4201 35.9633 24.7842 35.9666C22.625 35.978 20.4642 35.9715 18.3051 35.9715C12.9779 35.9715 7.65227 35.9715 2.32504 35.9715C1.07786 35.9715 0.778794 35.565 1.14687 34.3796C2.15086 31.1405 3.15649 27.8996 4.16048 24.6605C4.44969 23.7299 4.60743 23.6139 5.58513 23.6139C7.11659 23.6139 8.64804 23.578 10.1779 23.6303C10.8466 23.6531 11.1424 23.4768 11.3412 22.8009C12.2072 19.8458 13.1487 16.9119 14.0624 13.9715C14.3286 13.116 14.4978 12.9919 15.4065 12.9903C17.0415 12.9886 18.6781 12.969 20.3131 13.0033C20.7978 13.0131 20.995 12.8613 21.133 12.4058C22.0417 9.39842 22.98 6.39924 23.91 3.39679C24.1861 2.50699 24.3635 2.37638 25.2936 2.37475C29.4032 2.37475 33.5145 2.37312 37.6241 2.37475C38.5196 2.37475 38.7135 2.51516 38.9748 3.35761C39.9098 6.37965 40.8513 9.39842 41.7682 12.427C41.8964 12.8531 42.0755 13.0115 42.5422 13.0033C44.1772 12.9707 45.8138 12.9903 47.4487 12.9919C48.4051 12.9919 48.5628 13.1062 48.8389 13.996C49.7788 17.0164 50.7286 20.0335 51.6422 23.0621C51.7769 23.5094 51.9757 23.6335 52.4243 23.627C54.102 23.6009 55.7797 23.6335 57.4574 23.609C58.1328 23.5992 58.4877 23.8686 58.6833 24.5086C59.707 27.8735 60.7619 31.2286 61.7987 34.5886C62.0863 35.5225 61.7396 35.9731 60.734 35.9731C55.806 35.9764 50.8781 35.9747 45.9485 35.9747C43.4525 35.9747 40.9581 35.9748 38.4621 35.9731C38.2534 35.9731 38.0365 35.9894 37.8361 35.9454C37.3464 35.8376 37.0556 35.5356 37.1049 35.0131C37.1509 34.5266 37.4598 34.2605 37.938 34.2441C38.6478 34.2196 39.3577 34.236 40.1316 34.236ZM20.3952 34.2147C19.4948 31.3152 18.6272 28.4923 17.7218 25.6809C17.6708 25.5241 17.3225 25.3723 17.1105 25.3707C13.5234 25.3494 9.93795 25.3609 6.35086 25.3364C5.87598 25.3331 5.7133 25.5013 5.58678 25.9241C4.80462 28.5135 3.99124 31.0947 3.191 33.6792C3.14006 33.8458 3.1187 34.0205 3.07926 34.2147C8.8633 34.2147 14.5865 34.2147 20.3952 34.2147ZM59.7908 34.2082C59.7973 34.1478 59.8171 34.1021 59.8056 34.0662C58.9445 31.2613 58.0884 28.4547 57.2027 25.6564C57.1584 25.516 56.8708 25.3625 56.695 25.3625C53.0241 25.3478 49.3532 25.3592 45.684 25.3511C45.357 25.3511 45.2074 25.4458 45.1154 25.769C44.8164 26.809 44.4795 27.8376 44.1591 28.8727C43.6119 30.6376 43.0664 32.4041 42.506 34.2099C48.3114 34.2082 54.0511 34.2082 59.7908 34.2082ZM12.9023 23.578C18.7077 23.578 24.4408 23.578 30.2264 23.578C30.1656 23.3445 30.1229 23.1454 30.0621 22.9511C29.2685 20.3878 28.4633 17.8278 27.6861 15.258C27.5645 14.8531 27.4002 14.7143 26.9598 14.7176C23.3546 14.7388 19.7478 14.729 16.1426 14.7307C15.9783 14.7307 15.8124 14.7503 15.6333 14.7617C14.7246 17.6956 13.8208 20.6115 12.9023 23.578ZM32.6699 23.5796C38.4556 23.5796 44.187 23.5796 49.9941 23.5796C49.0706 20.6001 48.1619 17.6711 47.2614 14.765C47.1283 14.747 47.0675 14.7323 47.0051 14.7323C43.2734 14.7307 39.5417 14.7372 35.81 14.7176C35.4173 14.716 35.3203 14.8988 35.2283 15.1976C34.433 17.7821 33.6311 20.365 32.8325 22.9494C32.7734 23.1454 32.7307 23.3445 32.6699 23.5796ZM40.125 12.9674C39.2262 10.0629 38.3553 7.22046 37.4483 4.38781C37.4023 4.24577 37.0654 4.11679 36.8617 4.11679C33.2548 4.10046 29.6464 4.11189 26.0396 4.09557C25.6304 4.09393 25.4661 4.22128 25.3495 4.60985C24.5739 7.17965 23.7703 9.74128 22.975 12.3062C22.911 12.5135 22.8502 12.7209 22.7762 12.9674C28.5816 12.9674 34.3049 12.9674 40.125 12.9674ZM31.3701 21.2841C31.421 21.2874 31.472 21.289 31.5246 21.2923C32.195 19.1258 32.8671 16.9592 33.5473 14.7617C32.1161 14.7617 30.7654 14.7617 29.3506 14.7617C30.0325 16.969 30.7013 19.1274 31.3701 21.2841ZM19.475 25.369C20.1734 27.6188 20.852 29.805 21.5816 32.156C22.3128 29.7968 22.9915 27.6058 23.6849 25.369C22.252 25.369 20.9145 25.369 19.475 25.369ZM39.218 25.3788C39.918 27.6352 40.595 29.8147 41.318 32.1462C42.0443 29.8033 42.7229 27.6139 43.4164 25.3788C42.0049 25.3788 40.6525 25.3788 39.218 25.3788Z" fill="white"/>
<path d="M4.52032 9.619C4.64027 9.65329 4.76351 9.68104 4.88018 9.72186C6.18487 10.1643 7.49121 10.6035 8.79098 11.0574C9.39567 11.268 9.6553 11.7055 9.49919 12.1806C9.3283 12.6982 8.85013 12.9006 8.20764 12.6868C6.90131 12.2508 5.5999 11.7953 4.29684 11.3463C3.79403 11.1733 3.48346 10.8076 3.66422 10.3031C3.77595 9.99124 4.13745 9.7692 4.38722 9.50635C4.43323 9.54227 4.4776 9.57982 4.52032 9.619Z" fill="white"/>
<path d="M54.1366 12.8907C53.8869 12.636 53.5615 12.427 53.4251 12.1331C53.2345 11.7184 53.4596 11.3086 53.8671 11.16C55.3197 10.6294 56.7854 10.1315 58.2594 9.6629C58.6915 9.52575 59.1122 9.76902 59.1911 10.187C59.2486 10.4939 59.1155 11.0719 58.9134 11.1535C57.3869 11.7707 55.8225 12.2931 54.1366 12.8907Z" fill="white"/>
<path d="M14.4258 0.00755219C14.5606 0.14143 14.9057 0.334083 15.0125 0.616532C15.5219 1.95367 15.9787 3.31041 16.4289 4.66878C16.6047 5.20102 16.35 5.69572 15.8686 5.8149C15.3378 5.94551 14.9681 5.72021 14.7906 5.21572C14.3158 3.86551 13.8392 2.51531 13.3906 1.15694C13.1902 0.549593 13.6355 -0.0234682 14.4258 0.00755219Z" fill="white"/>
<path d="M49.5821 0.871214C49.5377 1.02958 49.5016 1.19121 49.449 1.34795C49.0267 2.58387 48.6027 3.82142 48.1722 5.05407C47.9471 5.69734 47.5166 5.97325 47.0154 5.81489C46.4879 5.64836 46.3039 5.1553 46.5339 4.47938C46.9678 3.20264 47.4032 1.92754 47.8518 0.655704C48.0145 0.193664 48.3694 -0.121439 48.8558 0.0450921C49.1729 0.152847 49.4112 0.495704 49.684 0.732439C49.6478 0.779786 49.6149 0.8255 49.5821 0.871214Z" fill="white"/>
<path d="M10.9734 8.22464C10.6513 8.02872 10.3933 7.9275 10.2093 7.74954C9.3088 6.88097 8.42148 5.9977 7.54401 5.10464C7.11843 4.67362 7.10035 4.20178 7.45199 3.83117C7.80528 3.45893 8.34425 3.47362 8.78298 3.90138C9.67852 4.77485 10.5856 5.64015 11.4285 6.5626C11.6372 6.78954 11.7309 7.24832 11.6635 7.55525C11.6126 7.80505 11.2379 7.98464 10.9734 8.22464Z" fill="white"/>
<path d="M55.7998 4.38488C55.6027 4.69998 55.4975 4.9563 55.3167 5.13916C54.4557 6.01916 53.5832 6.8861 52.7008 7.74324C52.2391 8.19222 51.751 8.21018 51.3731 7.83467C50.9968 7.45916 51.028 6.97753 51.4848 6.51712C52.3656 5.62896 53.2332 4.72447 54.1632 3.88855C54.3916 3.68283 54.8649 3.59957 55.1721 3.67467C55.417 3.73508 55.5813 4.12202 55.7998 4.38488Z" fill="white"/>
<path d="M31.4374 34.2362C31.8778 34.2362 32.3182 34.2166 32.7569 34.2411C33.2383 34.2689 33.5407 34.5464 33.5785 35.0248C33.6212 35.544 33.3205 35.9032 32.8292 35.9342C31.9107 35.9913 30.9855 35.9897 30.067 35.9375C29.5757 35.9097 29.27 35.5587 29.3078 35.0362C29.3456 34.522 29.6677 34.2558 30.1787 34.2362C30.5977 34.2199 31.0168 34.233 31.4358 34.233C31.4374 34.2346 31.4374 34.2362 31.4374 34.2362Z" fill="white"/>
</svg>
