<svg width="23" height="43" viewBox="0 0 23 43" fill="none" xmlns="http://www.w3.org/2000/svg">
<path opacity="0.7" d="M9.288 40L7.048 36.85C6.796 36.878 6.53467 36.892 6.264 36.892H3.632V40H2.596V30.2H6.264C7.51467 30.2 8.49467 30.4987 9.204 31.096C9.91333 31.6933 10.268 32.5147 10.268 33.56C10.268 34.3253 10.072 34.974 9.68 35.506C9.29733 36.0287 8.74667 36.4067 8.028 36.64L10.422 40H9.288ZM6.236 36.01C7.20667 36.01 7.94867 35.7953 8.462 35.366C8.97533 34.9367 9.232 34.3347 9.232 33.56C9.232 32.7667 8.97533 32.16 8.462 31.74C7.94867 31.3107 7.20667 31.096 6.236 31.096H3.632V36.01H6.236ZM16.6612 40.084C15.3919 40.084 14.4025 39.72 13.6932 38.992C12.9839 38.264 12.6292 37.2047 12.6292 35.814V30.2H13.6652V35.772C13.6652 36.9107 13.9219 37.76 14.4352 38.32C14.9485 38.88 15.6905 39.16 16.6612 39.16C17.6412 39.16 18.3879 38.88 18.9012 38.32C19.4145 37.76 19.6712 36.9107 19.6712 35.772V30.2H20.6792V35.814C20.6792 37.2047 20.3245 38.264 19.6152 38.992C18.9152 39.72 17.9305 40.084 16.6612 40.084Z" fill="white"/>
<path d="M20.4998 12.5166C20.4998 15.6821 20.5017 18.8471 20.4988 22.0126C20.4979 23.4456 19.6719 24.5934 18.3767 24.9405C18.0881 25.0176 17.7791 25.0447 17.4791 25.0452C14.805 25.0528 8.63016 25.0533 5.95597 25.0486C4.19639 25.0452 2.96285 23.8169 2.9491 22.0526C2.93963 20.8438 2.94721 19.635 2.94721 18.4262C2.94721 18.3829 2.94673 18.3391 2.951 18.2958C2.98654 17.9392 3.23344 17.7073 3.56422 17.7192C3.89215 17.7307 4.12578 17.9792 4.12768 18.3415C4.13242 19.246 4.12958 20.1501 4.12958 21.0547C4.12958 21.368 4.1291 21.6807 4.12958 21.994C4.13147 23.1547 4.83757 23.8683 5.98677 23.8688C8.53111 23.8698 14.5761 23.8702 17.1204 23.8674C17.3792 23.8669 17.6417 23.8693 17.8962 23.8303C18.6994 23.7074 19.2908 23.0214 19.3108 22.2044C19.3198 21.8393 19.3136 21.4741 19.3136 21.109C19.3136 15.0827 19.3141 9.05643 19.3131 3.03017C19.3131 2.15275 18.8558 1.48575 18.0914 1.26913C17.9028 1.21581 17.6995 1.19391 17.5028 1.19344C14.8206 1.1901 8.63727 1.1901 5.95455 1.19201C4.85179 1.19296 4.13195 1.9147 4.13005 3.01874C4.12815 4.24465 4.13052 5.47104 4.12863 6.69696C4.12815 7.05021 3.97129 7.27254 3.68364 7.34538C3.36945 7.42489 3.06142 7.24826 2.98038 6.93262C2.95479 6.83312 2.94816 6.72648 2.94816 6.62317C2.94626 5.42296 2.94199 4.22323 2.94816 3.02302C2.95574 1.5205 3.86467 0.356955 5.26313 0.0651162C5.49818 0.0160796 5.74414 0.00417755 5.98535 0.00370147C8.642 -0.000583286 14.7997 -0.00105603 17.4564 0.00180047C18.9714 0.00322872 20.1022 0.87589 20.4201 2.29748C20.4803 2.56599 20.4955 2.84926 20.496 3.12538C20.5016 6.25563 20.4998 9.38636 20.4998 12.5166Z" fill="#EBE7E5"/>
<path d="M11.2757 13.2051C11.1246 13.2051 11.0302 13.2051 10.9355 13.2051C8.39112 13.2051 3.25408 13.1422 0.709265 13.1413C0.298398 13.1413 0.0709281 12.9832 0.0112173 12.6647C-0.0532325 12.3214 0.166181 12.0153 0.511651 11.9744C0.623016 11.9611 0.736277 11.9639 0.848591 11.9639C3.34128 11.9634 8.42619 12.0268 10.9189 12.0268C11.0198 12.0268 11.1208 12.0268 11.2876 12.0268C11.0881 11.785 10.9322 11.5941 10.7739 11.4051C10.5066 11.0856 10.2336 10.7709 9.97062 10.4481C9.71803 10.1382 9.73604 9.79257 10.0047 9.56881C10.2701 9.3479 10.6222 9.3917 10.8748 9.68973C11.5819 10.5238 12.2861 11.3603 12.9879 12.1982C13.2173 12.472 13.2249 12.7367 13.0045 12.9999C12.2974 13.8455 11.5847 14.6858 10.8743 15.5279C10.7042 15.7298 10.4957 15.8284 10.2303 15.755C10 15.6917 9.82371 15.5346 9.82087 15.3051C9.8185 15.1161 9.88532 14.89 10.0005 14.7419C10.3668 14.2687 10.7696 13.8245 11.1577 13.3689C11.189 13.3313 11.2151 13.2894 11.2757 13.2051Z" fill="#EBE7E5"/>
</svg>
