<svg width="255" height="36" viewBox="0 0 255 36" fill="none" xmlns="http://www.w3.org/2000/svg">
<path d="M120.555 0.222168V23.4064H118.212V4.85901L109.118 20.4597H107.963L98.8581 4.95909V23.4064H96.5151V0.222168H98.536L108.596 17.413L118.556 0.222168H120.555Z" fill="#EAEAEA"/>
<path d="M142.619 17.2128H129.716L126.94 23.4064H124.397L134.979 0.222168H137.389L147.971 23.4064H145.395L142.619 17.2128ZM141.719 15.2224L136.168 2.76854L130.616 15.2224H141.719Z" fill="#EAEAEA"/>
<path d="M167.624 23.4064L162.327 15.9563C161.728 16.023 161.117 16.0564 160.473 16.0564H154.255V23.4064H151.812V0.222168H160.473C163.427 0.222168 165.747 0.933818 167.424 2.346C169.101 3.75818 169.934 5.7041 169.934 8.17263C169.934 9.98512 169.478 11.5085 168.557 12.765C167.646 14.0104 166.336 14.9111 164.637 15.467L170.289 23.4175H167.624V23.4064ZM165.67 12.4425C166.88 11.4307 167.491 10.0074 167.491 8.17263C167.491 6.29343 166.88 4.85901 165.67 3.84714C164.459 2.84638 162.705 2.33488 160.406 2.33488H154.255V13.9659H160.406C162.705 13.9659 164.459 13.4544 165.67 12.4425Z" fill="#EAEAEA"/>
<path d="M182.903 12.5092L178.173 17.3129V23.4064H175.73V0.222168H178.173V14.2328L191.764 0.222168H194.573L184.546 10.719L195.262 23.4064H192.352L182.903 12.5092Z" fill="#EAEAEA"/>
<path d="M215.615 21.2826V23.4064H199.248V0.222168H215.127V2.346H201.702V10.5856H213.672V12.676H201.702V21.2826H215.615Z" fill="#EAEAEA"/>
<path d="M225.864 2.346H217.725V0.222168H236.446V2.346H228.307V23.4175H225.864V2.346Z" fill="#EAEAEA"/>
<path d="M241.432 22.7728C239.855 22.2168 238.634 21.494 237.779 20.5822L238.734 18.6919C239.567 19.5259 240.688 20.2153 242.076 20.7268C243.464 21.2494 244.896 21.5052 246.373 21.5052C248.45 21.5052 250.004 21.1271 251.037 20.3599C252.069 19.5926 252.591 18.6141 252.591 17.3909C252.591 16.468 252.314 15.723 251.747 15.167C251.181 14.6111 250.493 14.1885 249.682 13.8883C248.872 13.5881 247.728 13.2656 246.273 12.9098C244.53 12.465 243.142 12.0424 242.109 11.631C241.077 11.2196 240.188 10.5969 239.444 9.76295C238.7 8.92898 238.334 7.78367 238.334 6.34925C238.334 5.1817 238.645 4.11423 239.256 3.15795C239.877 2.20167 240.821 1.43442 242.098 0.856204C243.375 0.277988 244.963 0 246.862 0C248.183 0 249.482 0.177912 250.748 0.544857C252.014 0.911801 253.113 1.41218 254.035 2.05711L253.213 4.01415C252.247 3.36922 251.203 2.89108 250.104 2.56861C249.005 2.24614 247.917 2.09047 246.862 2.09047C244.83 2.09047 243.309 2.47966 242.276 3.26914C241.254 4.05863 240.744 5.05939 240.744 6.30477C240.744 7.22769 241.021 7.9727 241.587 8.5398C242.154 9.10689 242.853 9.52944 243.708 9.82966C244.552 10.1299 245.696 10.4524 247.128 10.8082C248.827 11.2307 250.204 11.6421 251.248 12.0536C252.292 12.465 253.18 13.0766 253.913 13.9105C254.646 14.7334 255.001 15.8564 255.001 17.2686C255.001 18.4362 254.69 19.5037 254.057 20.4599C253.424 21.4162 252.469 22.1835 251.159 22.7506C249.86 23.3177 248.261 23.5956 246.362 23.5956C244.652 23.6068 243.009 23.3288 241.432 22.7728Z" fill="#EAEAEA"/>
<path d="M86.1328 0.155762H91.496V23.3733H86.1328V0.155762Z" fill="#EAEAEA"/>
<path d="M75.3401 0.155762V14.2331L63.8254 0.155762H59.4061H58.5178V12.9543C58.5178 15.1115 58.0736 16.6683 57.1853 17.669C56.297 18.6698 55.0312 19.1702 53.3656 19.1702C49.9345 19.1702 48.2245 17.1242 48.2245 12.9655V0.155762H42.8613V13.1767C42.8613 16.5571 43.8052 19.2146 45.6262 21.0494C47.4472 22.873 50.0566 23.8181 53.3767 23.8181C56.6967 23.8181 59.2395 22.873 61.1272 21.0494C62.9482 19.2258 63.892 16.6127 63.892 13.1767V8.30638L64.7803 9.30713L76.2284 23.3733H80.6588V0.155762H75.3401Z" fill="#EAEAEA"/>
<path d="M32.0124 0.155762H3.40888C1.52123 0.155762 0 1.69026 0 3.51386V32.2134C0 34.0926 1.52123 35.6271 3.40888 35.6271H32.0235C33.9001 35.6271 35.4324 34.1037 35.4324 32.2134V3.51386C35.4213 1.69026 33.9001 0.155762 32.0124 0.155762ZM32.8785 17.8692H17.3775V33.392H16.6669C16.6669 25.1969 10.0601 18.5808 1.87655 18.5808V17.8692H17.3775V2.34631H18.0882C18.0882 10.5414 24.695 17.1575 32.8785 17.1575V17.8692Z" fill="#EAEAEA"/>
<path d="M45.2926 28.9884H42.9053V28.3657H48.4017V28.9884H46.0144V35.1709H45.2926V28.9884Z" fill="#EAEAEA"/>
<path d="M54.1756 35.1709L52.6211 32.9803C52.4434 33.0026 52.2657 33.0137 52.077 33.0137H50.2559V35.1709H49.5342V28.3657H52.077C52.9431 28.3657 53.6204 28.577 54.1201 28.9884C54.6086 29.3998 54.8529 29.9781 54.8529 30.7008C54.8529 31.2346 54.7197 31.6793 54.4532 32.0463C54.1867 32.4132 53.7981 32.6801 53.2984 32.8358L54.964 35.1709H54.1756ZM53.6093 31.9462C53.9646 31.646 54.1423 31.2346 54.1423 30.6897C54.1423 30.1337 53.9646 29.7112 53.6093 29.4221C53.254 29.1219 52.7432 28.9773 52.0659 28.9773H50.2559V32.391H52.0659C52.7321 32.4021 53.254 32.2464 53.6093 31.9462Z" fill="#EAEAEA"/>
<path d="M60.8161 33.3473H57.0296L56.2191 35.1709H55.4751L58.5842 28.3657H59.2948L62.4039 35.1709H61.6488L60.8161 33.3473ZM60.5607 32.7691L58.9284 29.1107L57.2961 32.7691H60.5607Z" fill="#EAEAEA"/>
<path d="M63.5137 28.3657H66.2785C67.0003 28.3657 67.6332 28.5103 68.1773 28.7994C68.7325 29.0885 69.1544 29.4888 69.4542 30.0003C69.754 30.5118 69.9095 31.1011 69.9095 31.7683C69.9095 32.4244 69.754 33.0137 69.4542 33.5363C69.1544 34.0478 68.7214 34.4481 68.1773 34.7372C67.6221 35.0263 66.9892 35.1709 66.2785 35.1709H63.5137V28.3657ZM66.2452 34.5482C66.8448 34.5482 67.3667 34.4259 67.8109 34.1924C68.255 33.9588 68.5992 33.6253 68.8435 33.2138C69.0878 32.7913 69.2099 32.3132 69.2099 31.7683C69.2099 31.2234 69.0878 30.7453 68.8435 30.3228C68.5992 29.9002 68.255 29.5778 67.8109 29.3442C67.3667 29.1107 66.8448 28.9884 66.2452 28.9884H64.2354V34.5482H66.2452Z" fill="#EAEAEA"/>
<path d="M71.5312 28.3657H72.253V35.1709H71.5312V28.3657Z" fill="#EAEAEA"/>
<path d="M80.1472 28.3657V35.1709H79.5587L75.1949 29.6445V35.1709H74.4731V28.3657H75.0616L79.4366 33.8921V28.3657H80.1472Z" fill="#EAEAEA"/>
<path d="M87.1428 31.7682H87.8313V34.3591C87.5093 34.6371 87.1428 34.8483 86.7098 35.004C86.2767 35.1486 85.8215 35.2264 85.344 35.2264C84.6667 35.2264 84.056 35.0819 83.5119 34.7816C82.9678 34.4814 82.5458 34.07 82.2349 33.5474C81.924 33.0136 81.7686 32.4243 81.7686 31.7682C81.7686 31.1122 81.924 30.5228 82.2349 29.9891C82.5458 29.4665 82.9678 29.0439 83.5119 28.7548C84.056 28.4546 84.6667 28.3101 85.3551 28.3101C85.877 28.3101 86.3545 28.3879 86.7875 28.5547C87.2206 28.7215 87.587 28.9661 87.8868 29.2886L87.4426 29.7445C86.9096 29.2107 86.2212 28.9439 85.3995 28.9439C84.8443 28.9439 84.3558 29.0662 83.9116 29.3108C83.4674 29.5554 83.1232 29.889 82.8678 30.3227C82.6124 30.7564 82.4903 31.2345 82.4903 31.7682C82.4903 32.302 82.6124 32.7801 82.8678 33.2027C83.1232 33.6252 83.4674 33.9699 83.9005 34.2145C84.3446 34.4592 84.8332 34.5815 85.3884 34.5815C86.088 34.5815 86.6765 34.4036 87.165 34.0589V31.7682H87.1428Z" fill="#EAEAEA"/>
<path d="M92.4062 28.3657H93.128V35.1709H92.4062V28.3657Z" fill="#EAEAEA"/>
<path d="M95.7597 34.9817C95.2933 34.8149 94.938 34.6036 94.6826 34.3367L94.9602 33.7808C95.2045 34.0254 95.5376 34.2255 95.9374 34.3812C96.3482 34.5369 96.7701 34.6036 97.2032 34.6036C97.8139 34.6036 98.2692 34.4924 98.569 34.27C98.8688 34.0476 99.0242 33.7585 99.0242 33.4027C99.0242 33.1358 98.9465 32.9134 98.7799 32.7578C98.6134 32.591 98.4135 32.4687 98.1692 32.3797C97.9249 32.2907 97.5918 32.2018 97.1699 32.0906C96.6591 31.9572 96.2483 31.8348 95.9485 31.7125C95.6487 31.5902 95.3822 31.4123 95.1712 31.1677C94.9491 30.923 94.8492 30.5895 94.8492 30.1669C94.8492 29.8222 94.938 29.5109 95.1157 29.2329C95.2933 28.9549 95.5709 28.7214 95.9485 28.5546C96.326 28.3878 96.7923 28.2988 97.3475 28.2988C97.7362 28.2988 98.1137 28.3544 98.4912 28.4545C98.8577 28.5657 99.1797 28.7102 99.4573 28.8993L99.213 29.4775C98.9243 29.2885 98.6245 29.1439 98.3025 29.055C97.9805 28.966 97.6584 28.9104 97.3475 28.9104C96.7479 28.9104 96.3038 29.0216 96.004 29.2551C95.7042 29.4886 95.5487 29.7777 95.5487 30.1447C95.5487 30.4115 95.6264 30.6339 95.793 30.8007C95.9596 30.9675 96.1594 31.0898 96.4148 31.1788C96.6591 31.2677 97.0033 31.3567 97.4142 31.4679C97.9138 31.5902 98.3136 31.7125 98.6245 31.8348C98.9354 31.9572 99.1908 32.1351 99.4018 32.3797C99.6127 32.6243 99.7238 32.9468 99.7238 33.3693C99.7238 33.714 99.6349 34.0254 99.4462 34.3034C99.2574 34.5814 98.9798 34.8038 98.5912 34.9705C98.2136 35.1373 97.7362 35.2152 97.181 35.2152C96.7035 35.2263 96.2261 35.1485 95.7597 34.9817Z" fill="#EAEAEA"/>
<path d="M104.276 34.9817C103.81 34.8149 103.455 34.6036 103.199 34.3367L103.477 33.7808C103.721 34.0254 104.054 34.2255 104.454 34.3812C104.865 34.5369 105.287 34.6036 105.72 34.6036C106.331 34.6036 106.786 34.4924 107.086 34.27C107.385 34.0476 107.541 33.7585 107.541 33.4027C107.541 33.1358 107.463 32.9134 107.297 32.7578C107.13 32.591 106.93 32.4687 106.686 32.3797C106.442 32.2907 106.108 32.2018 105.686 32.0906C105.176 31.9572 104.765 31.8348 104.465 31.7125C104.165 31.5902 103.899 31.4123 103.688 31.1677C103.477 30.923 103.366 30.5895 103.366 30.1669C103.366 29.8222 103.455 29.5109 103.632 29.2329C103.81 28.9549 104.088 28.7214 104.465 28.5546C104.843 28.3878 105.309 28.2988 105.864 28.2988C106.253 28.2988 106.63 28.3544 107.008 28.4545C107.385 28.5657 107.707 28.7102 107.974 28.8993L107.73 29.4775C107.441 29.2885 107.141 29.1439 106.819 29.055C106.497 28.966 106.175 28.9104 105.864 28.9104C105.265 28.9104 104.82 29.0216 104.521 29.2551C104.221 29.4886 104.065 29.7777 104.065 30.1447C104.065 30.4115 104.143 30.6339 104.31 30.8007C104.476 30.9675 104.676 31.0898 104.931 31.1788C105.176 31.2677 105.52 31.3567 105.931 31.4679C106.43 31.5902 106.83 31.7125 107.141 31.8348C107.452 31.9572 107.707 32.1351 107.918 32.3797C108.129 32.6243 108.24 32.9468 108.24 33.3693C108.24 33.714 108.152 34.0254 107.963 34.3034C107.774 34.5814 107.496 34.8038 107.119 34.9705C106.741 35.1373 106.264 35.2152 105.709 35.2152C105.22 35.2263 104.732 35.1485 104.276 34.9817Z" fill="#EAEAEA"/>
<path d="M109.817 28.3657H110.539V35.1709H109.817V28.3657Z" fill="#EAEAEA"/>
<path d="M119.811 28.3657V35.1709H119.122V29.7223L116.457 34.3036H116.113L113.448 29.7557V35.1709H112.76V28.3657H113.348L116.302 33.414L119.222 28.3657H119.811Z" fill="#EAEAEA"/>
<path d="M126.606 28.9884C127.094 29.3998 127.339 29.9781 127.339 30.7008C127.339 31.4236 127.094 31.9907 126.606 32.4021C126.117 32.8135 125.44 33.0248 124.563 33.0248H122.742V35.1709H122.02V28.3657H124.563C125.429 28.3657 126.106 28.577 126.606 28.9884ZM126.084 31.9462C126.439 31.646 126.617 31.2346 126.617 30.7008C126.617 30.1448 126.439 29.7223 126.084 29.4332C125.729 29.133 125.218 28.9884 124.541 28.9884H122.731V32.391H124.541C125.218 32.391 125.729 32.2464 126.084 31.9462Z" fill="#EAEAEA"/>
<path d="M128.894 28.3657H129.616V34.5482H133.424V35.1709H128.905V28.3657H128.894Z" fill="#EAEAEA"/>
<path d="M139.42 34.5482V35.1709H134.612V28.3657H139.275V28.9884H135.334V31.4125H138.842V32.024H135.334V34.5482H139.42Z" fill="#EAEAEA"/>
</svg>
